<?xml version="1.0" encoding="UTF-8"?>
<!DOCTYPE svg PUBLIC "-//W3C//DTD SVG 1.1//EN" "http://www.w3.org/Graphics/SVG/1.1/DTD/svg11.dtd">
<!-- Creator: CorelDRAW 2020 (64-Bit) -->
<svg xmlns="http://www.w3.org/2000/svg" xml:space="preserve" width="76" height="53" version="1.1" style="shape-rendering:geometricPrecision; text-rendering:geometricPrecision; image-rendering:optimizeQuality; fill-rule:evenodd; clip-rule:evenodd"
viewBox="0 0 213877.29 110417.13"
 xmlns:xlink="http://www.w3.org/1999/xlink"
 xmlns:xodm="http://www.corel.com/coreldraw/odm/2003">
 <defs>
  <style type="text/css">
   <![CDATA[
    .fil1 {fill:#59C0ED}
    .fil0 {fill:#E13D3D;fill-rule:nonzero}
   ]]>
  </style>
 </defs>
 <g id="Слой_x0020_1">
  <metadata id="CorelCorpID_0Corel-Layer"/>
  <polygon class="fil0" points="164393.52,30830.88 152202.16,30830.88 152202.16,79585.47 164393.52,79585.47 "/>
  <polygon class="fil0" points="182897.61,49186.07 133989.42,49186.07 133989.42,61374.39 182897.61,61374.39 "/>
  <path class="fil1" d="M126816.2 71555.48c-2581.17,-4875.59 -4014.22,-10467.75 -4014.22,-16347.26 0,-19500.97 15920.57,-35419.11 35568.7,-35419.11 7889.79,0 15060.67,2581.86 20939.49,6739.41l-2293.73 2294.51 21800.09 861.37 -860.59 -21653.63 -4589.02 4445.69c-9611.07,-7744.12 -21800.09,-12476.46 -34996.24,-12476.46 -30550.56,0 -55361.72,24663.92 -55361.72,55208.22 0,10468.53 2867.74,20076.47 7888.23,28392.25l0 -13193.03 15919.01 1148.04z"/>
  <path class="fil1" d="M200681.13 19645.78l431.47 12476.46 -16352.04 -574.02c5737.05,6309.51 9178.81,14626.86 9178.81,23804.02 0,19501.75 -15919.01,35419.11 -35568.7,35419.11 -10758.32,0 -20510.37,-4875.59 -26964.77,-12475.68l3585.09 -3297.65 -21656.06 -1577.16 143.33 21652.06 3585.87 -3297.65c10183.52,11471.76 24956.06,18641.86 41449.86,18641.86 30550.56,0 55363.28,-24663.92 55363.28,-55208.13 -144.11,-13623.72 -5021.35,-25955.28 -13196.16,-35563.22z"/>
  <path class="fil1" d="M54731.55 22017.91l0 68198.72 -15494.23 0 0 -46069.74 -6237.1 46069.74 -11067.84 0 -6439.19 -45063.38 0 44863.46 -15493.19 0 0 -68199.94 22938.73 0c603.22,4024.39 1409.58,8852.95 2012.8,14484.66l2615.85 17301.55 4025.52 -31786.21 23138.65 0 0 201.13z"/>
  <polygon class="fil1" points="97308.15,21746.11 97308.15,35426.5 86844.58,35426.5 86844.58,89944.83 69138.76,89944.83 69138.76,35426.5 58675.19,35426.5 58675.19,21746.11 "/>
 </g>
</svg>
