<svg width="84" height="84" viewBox="0 0 60 60" fill="none" xmlns="http://www.w3.org/2000/svg">
<path d="M45.7581 52C44.2323 52 42.9839 50.7516 42.9839 49.2258C42.9839 47.7 44.2323 46.4516 45.7581 46.4516C47.2839 46.4516 48.5323 47.7 48.5323 49.2258C48.5323 50.7516 47.2839 52 45.7581 52ZM45.7581 47.8387C44.9952 47.8387 44.371 48.4629 44.371 49.2258C44.371 49.9887 44.9952 50.6129 45.7581 50.6129C46.521 50.6129 47.1452 49.9887 47.1452 49.2258C47.1452 48.4629 46.521 47.8387 45.7581 47.8387Z" fill="#464747"></path>
<path d="M15.2419 52C13.7161 52 12.4677 50.7516 12.4677 49.2258C12.4677 47.7 13.7161 46.4516 15.2419 46.4516C16.7677 46.4516 18.0161 47.7 18.0161 49.2258C18.0161 50.7516 16.7677 52 15.2419 52ZM15.2419 47.8387C14.479 47.8387 13.8548 48.4629 13.8548 49.2258C13.8548 49.9887 14.479 50.6129 15.2419 50.6129C16.0048 50.6129 16.629 49.9887 16.629 49.2258C16.629 48.4629 16.0048 47.8387 15.2419 47.8387Z" fill="#464747"></path>
<path d="M45.7581 47.8387C45.3766 47.8387 45.0645 47.5266 45.0645 47.1452V46.4516C45.0645 45.6887 44.4403 45.0645 43.6774 45.0645H17.3226C16.5597 45.0645 15.9355 45.6887 15.9355 46.4516V47.1452C15.9355 47.5266 15.6234 47.8387 15.2419 47.8387C14.8605 47.8387 14.5484 47.5266 14.5484 47.1452V46.4516C14.5484 44.9258 15.7968 43.6774 17.3226 43.6774H43.6774C45.2032 43.6774 46.4516 44.9258 46.4516 46.4516V47.1452C46.4516 47.5266 46.1395 47.8387 45.7581 47.8387Z" fill="#464747"></path>
<path d="M49.2258 41.5968H11.7742C10.2484 41.5968 9 40.3484 9 38.8226V25.6452C9 25.2637 9.3121 24.9516 9.69355 24.9516C10.075 24.9516 10.3871 25.2637 10.3871 25.6452V38.8226C10.3871 39.5855 11.0113 40.2097 11.7742 40.2097H49.2258C49.9887 40.2097 50.6129 39.5855 50.6129 38.8226V27.7258C50.6129 27.3444 50.925 27.0323 51.3064 27.0323C51.6879 27.0323 52 27.3444 52 27.7258V38.8226C52 40.3484 50.7516 41.5968 49.2258 41.5968Z" fill="#464747"></path>
<path d="M51.3064 32.5806H9.69355C9.3121 32.5806 9 32.2685 9 31.8871C9 31.5056 9.3121 31.1935 9.69355 31.1935H51.3064C51.6879 31.1935 52 31.5056 52 31.8871C52 32.2685 51.6879 32.5806 51.3064 32.5806Z" fill="#464747"></path>
<path d="M51.3064 38.129H9.69355C9.3121 38.129 9 37.8169 9 37.4355C9 37.054 9.3121 36.7419 9.69355 36.7419H51.3064C51.6879 36.7419 52 37.054 52 37.4355C52 37.8169 51.6879 38.129 51.3064 38.129Z" fill="#464747"></path>
<path d="M39.5161 45.0645C39.1347 45.0645 38.8226 44.7524 38.8226 44.371V40.9032C38.8226 40.5218 39.1347 40.2097 39.5161 40.2097C39.8976 40.2097 40.2097 40.5218 40.2097 40.9032V44.371C40.2097 44.7524 39.8976 45.0645 39.5161 45.0645Z" fill="#464747"></path>
<path d="M21.4839 45.0645C21.1024 45.0645 20.7903 44.7524 20.7903 44.371V40.9032C20.7903 40.5218 21.1024 40.2097 21.4839 40.2097C21.8653 40.2097 22.1774 40.5218 22.1774 40.9032V44.371C22.1774 44.7524 21.8653 45.0645 21.4839 45.0645Z" fill="#464747"></path>
<path d="M21.4839 32.5806C21.2411 32.5806 21.0071 32.4593 20.877 32.2339L19.2992 29.477C18.6837 28.402 17.5306 27.7258 16.2909 27.7258H9.69355C9.3121 27.7258 9 27.4137 9 27.0323C9 26.6508 9.3121 26.3387 9.69355 26.3387H16.2909C18.0248 26.3387 19.646 27.275 20.5042 28.7835L22.0821 31.5403C22.2728 31.8698 22.1601 32.2946 21.822 32.4853C21.7179 32.5546 21.6052 32.5806 21.4839 32.5806Z" fill="#464747"></path>
<path d="M38.129 24.2581C33.9244 24.2581 30.5 20.8337 30.5 16.629C30.5 12.4244 33.9244 9 38.129 9C42.3337 9 45.7581 12.4244 45.7581 16.629C45.7581 20.8337 42.3337 24.2581 38.129 24.2581ZM38.129 10.3871C34.6873 10.3871 31.8871 13.1873 31.8871 16.629C31.8871 20.0708 34.6873 22.871 38.129 22.871C41.5708 22.871 44.371 20.0708 44.371 16.629C44.371 13.1873 41.5708 10.3871 38.129 10.3871Z" fill="#464747"></path>
<path d="M40.9032 17.3226H38.129C37.7476 17.3226 37.4355 17.0105 37.4355 16.629V12.4677C37.4355 12.0863 37.7476 11.7742 38.129 11.7742C38.5105 11.7742 38.8226 12.0863 38.8226 12.4677V15.9355H40.9032C41.2847 15.9355 41.5968 16.2476 41.5968 16.629C41.5968 17.0105 41.2847 17.3226 40.9032 17.3226Z" fill="#464747"></path>
</svg>