<svg xmlns="http://www.w3.org/2000/svg" width="24" height="24" class="j9d"><path fill="currentColor" d="M13 11v1.976h2a1 1 0 0 1 0 2h-2V17a1 1 0 0 1-2 0v-2.024H9a1 1 0 0 1 0-2h2V11a1 1 0 0 1 2 0Z"></path><path fill="currentColor" d="M18 4v1c2.757 0 5 2.243 5 5v8c0 2.757-2.243 5-5 5H6c-2.757 0-5-2.243-5-5v-8c0-2.757 2.243-5 5-5V4c0-1.654 1.346-3 3-3h6c1.654 0 3 1.346 3 3Zm0 17c1.654 0 3-1.346 3-3v-8c0-1.654-1.346-3-3-3h-1a1 1 0 0 1-1-1V4c0-.551-.449-1-1-1H9c-.551 0-1 .449-1 1v1h5a1 1 0 0 1 0 2H6c-1.654 0-3 1.346-3 3v8c0 1.654 1.346 3 3 3h12Z"></path></svg>