<?xml version="1.0" standalone="no"?>
<!DOCTYPE svg PUBLIC "-//W3C//DTD SVG 20010904//EN"
 "http://www.w3.org/TR/2001/REC-SVG-20010904/DTD/svg10.dtd">
<svg version="1.0" xmlns="http://www.w3.org/2000/svg"
 width="90" height="90" viewBox="0 0 4266.000000 3200.000000"
 preserveAspectRatio="xMidYMid meet">

<g transform="translate(0.000000,3200.000000) scale(0.100000,-0.100000)"
fill="#f4f4f4" stroke="none">
<path d="M10254 31200 c-66 -4 -129 -10 -140 -13 -10 -4 -89 -11 -174 -17 -85
-6 -180 -15 -210 -21 -30 -5 -102 -16 -160 -24 -97 -14 -245 -39 -460 -79 -47
-9 -96 -20 -110 -26 -14 -5 -56 -14 -94 -20 -38 -6 -76 -15 -85 -19 -9 -5 -74
-23 -146 -40 -71 -18 -146 -38 -165 -46 -19 -8 -53 -17 -75 -21 -22 -4 -49
-11 -60 -17 -11 -6 -42 -17 -70 -24 -44 -11 -266 -86 -320 -108 -87 -34 -143
-55 -149 -55 -5 0 -56 -20 -115 -45 -58 -25 -128 -55 -156 -67 -27 -12 -105
-47 -171 -79 -67 -31 -132 -60 -144 -64 -12 -4 -52 -24 -90 -46 -38 -21 -73
-39 -77 -39 -4 0 -57 -28 -118 -61 -60 -33 -146 -80 -190 -104 -44 -23 -107
-60 -140 -81 -82 -53 -95 -61 -135 -84 -19 -11 -60 -37 -91 -58 -31 -20 -85
-56 -120 -78 -74 -48 -113 -76 -304 -219 -336 -252 -485 -380 -803 -695 -211
-209 -334 -344 -523 -575 -133 -164 -352 -465 -445 -615 -26 -41 -66 -104 -90
-140 -78 -119 -222 -380 -328 -593 -106 -215 -127 -262 -217 -487 -28 -69 -54
-134 -59 -145 -5 -11 -16 -38 -23 -60 -8 -22 -28 -78 -44 -125 -17 -47 -52
-152 -77 -235 -26 -82 -53 -170 -61 -195 -22 -72 -61 -226 -90 -355 -14 -66
-32 -145 -40 -175 -7 -30 -16 -77 -20 -105 -3 -27 -13 -72 -20 -100 -7 -27
-16 -81 -20 -118 -4 -37 -11 -82 -16 -99 -5 -18 -18 -118 -29 -222 -11 -105
-22 -196 -25 -203 -2 -6 -11 -152 -21 -325 -23 -432 -12 -1011 31 -1563 8
-104 17 -246 20 -315 4 -69 13 -179 20 -245 8 -66 19 -183 25 -259 6 -76 13
-142 15 -146 2 -4 11 -78 20 -165 9 -87 18 -162 21 -166 2 -4 11 -52 18 -106
27 -185 81 -464 120 -623 56 -223 163 -582 196 -655 5 -11 34 -83 64 -161 128
-326 326 -706 505 -964 24 -36 66 -96 92 -135 258 -376 723 -867 1184 -1249
168 -139 386 -306 550 -421 44 -30 121 -84 170 -119 50 -36 115 -79 145 -97
30 -18 74 -46 97 -63 23 -17 61 -42 84 -56 23 -14 56 -34 73 -45 24 -16 272
-163 346 -205 226 -130 368 -210 425 -240 38 -21 99 -53 135 -72 149 -81 219
-117 280 -148 65 -32 152 -77 180 -92 31 -16 392 -188 396 -188 3 0 44 -18 92
-41 104 -49 141 -66 247 -114 202 -92 301 -138 445 -207 69 -33 132 -64 140
-69 8 -5 24 -13 35 -18 50 -22 222 -109 340 -171 72 -38 140 -74 152 -79 29
-13 263 -149 327 -189 28 -18 53 -32 58 -32 4 0 42 -24 85 -53 43 -29 114 -75
158 -102 44 -27 114 -74 155 -105 41 -31 86 -63 100 -70 47 -25 240 -177 360
-284 250 -222 460 -461 582 -660 87 -143 175 -337 212 -466 55 -194 61 -243
60 -505 -1 -241 -2 -255 -32 -395 -36 -168 -55 -234 -110 -385 -60 -166 -78
-206 -185 -424 -44 -90 -91 -179 -104 -198 -13 -18 -23 -37 -23 -41 0 -7 -92
-161 -144 -242 -130 -200 -238 -358 -297 -435 -25 -33 -51 -70 -57 -82 -7 -12
-18 -27 -25 -35 -7 -7 -37 -47 -67 -88 -30 -41 -61 -81 -68 -90 -7 -8 -97
-121 -199 -250 -186 -234 -252 -315 -343 -420 -26 -30 -80 -93 -120 -140 -74
-86 -154 -179 -221 -254 -20 -23 -98 -111 -174 -196 -76 -85 -151 -171 -168
-190 -17 -19 -51 -58 -76 -86 -25 -27 -84 -93 -131 -144 -47 -52 -119 -131
-161 -175 -41 -44 -120 -129 -174 -190 -174 -194 -261 -277 -475 -459 -14 -11
-55 -46 -90 -76 -180 -154 -904 -715 -967 -748 -11 -6 -67 -46 -124 -89 -57
-42 -130 -95 -163 -118 -34 -22 -106 -72 -161 -110 -282 -194 -649 -438 -840
-560 -33 -21 -89 -57 -125 -80 -36 -24 -110 -72 -165 -106 -55 -35 -109 -70
-120 -77 -11 -7 -39 -25 -63 -40 -24 -15 -87 -55 -139 -90 -53 -34 -106 -68
-118 -75 -12 -6 -42 -25 -66 -41 -40 -26 -127 -83 -219 -141 -157 -100 -667
-439 -745 -495 -19 -14 -74 -53 -122 -88 -49 -34 -117 -84 -152 -110 -35 -26
-94 -69 -132 -97 -225 -166 -499 -415 -642 -584 -40 -47 -80 -93 -90 -103 -32
-33 -142 -211 -176 -283 -18 -38 -36 -77 -41 -86 -10 -20 -40 -130 -51 -189
-32 -178 13 -406 117 -590 56 -99 132 -170 200 -186 16 -4 41 -13 57 -21 50
-25 242 -46 372 -40 154 8 329 25 375 37 20 5 71 14 115 20 44 6 103 17 130
25 28 8 111 28 185 45 161 36 236 56 310 80 30 11 70 22 88 25 18 4 45 13 60
21 15 8 32 14 39 14 6 0 73 20 149 45 75 25 142 45 148 45 6 1 29 9 51 20 22
11 46 19 53 20 8 0 28 6 45 14 30 12 97 37 237 88 30 10 74 28 98 39 23 10 48
19 55 19 6 0 26 7 42 16 17 9 48 22 70 29 22 7 90 34 150 60 61 26 128 54 150
62 22 8 67 27 100 42 33 16 78 34 100 41 22 7 51 18 65 26 14 7 45 21 70 32
25 11 71 32 102 46 31 14 59 26 62 26 3 0 50 21 103 46 54 25 116 54 138 64
219 97 1050 506 1275 627 41 22 120 64 175 93 55 29 105 56 110 60 6 4 55 31
110 60 169 89 188 100 199 109 6 5 43 25 81 46 39 20 75 40 80 44 6 5 35 21
65 37 30 16 70 39 89 51 18 13 56 34 85 48 28 14 65 34 81 45 36 23 156 92
240 139 33 18 67 39 75 45 8 7 57 37 108 67 187 108 208 121 273 165 36 24 70
44 76 44 5 0 30 15 54 33 24 18 67 46 94 61 28 16 79 47 115 71 36 23 107 68
158 101 348 222 823 539 1077 719 50 35 122 85 160 111 39 26 122 86 185 133
63 47 140 104 171 126 56 40 134 98 248 185 32 25 109 83 171 130 193 146 774
612 875 701 73 64 122 107 155 133 45 37 165 144 250 221 36 34 83 76 105 94
183 154 779 758 919 931 15 19 49 58 75 85 86 93 312 366 496 601 105 135 246
318 263 344 9 14 42 59 72 100 31 41 62 85 70 97 13 18 150 213 227 323 14 19
50 73 81 120 71 107 71 107 107 165 17 26 39 60 51 74 11 14 34 49 50 76 16
28 47 78 69 111 22 34 52 81 67 105 15 24 32 51 37 59 9 12 105 175 178 298
59 100 301 525 327 576 43 82 169 318 206 386 62 115 390 782 390 794 0 3 20
47 44 98 73 155 116 248 116 254 0 3 18 43 40 90 22 47 40 88 40 91 0 4 9 25
19 47 11 23 35 79 54 126 47 116 66 159 83 197 8 17 14 35 14 40 0 4 6 20 14
35 8 14 19 43 26 65 7 21 19 47 25 58 7 11 16 31 20 45 9 32 81 222 106 278
10 23 19 47 19 53 0 6 6 25 14 42 8 18 19 48 26 67 15 43 50 141 85 235 14 39
52 149 85 245 32 96 64 189 69 205 24 68 80 247 111 350 17 61 38 124 45 140
7 17 15 46 19 65 4 19 15 60 26 90 10 30 27 89 38 130 38 138 73 264 87 315 8
28 22 77 30 110 63 248 78 311 96 390 12 50 28 115 36 145 9 30 21 84 28 120
7 36 17 85 23 110 22 90 51 228 77 365 14 77 32 165 40 195 8 31 19 96 25 145
6 49 14 93 17 98 6 10 34 181 63 392 11 77 24 163 29 190 6 28 13 84 16 125 4
41 11 92 16 112 5 20 16 109 24 197 8 87 19 181 24 208 5 26 12 93 16 148 3
55 12 165 20 245 17 173 30 444 46 945 10 319 10 430 -5 805 -9 239 -21 494
-26 565 -15 198 -48 543 -59 605 -5 30 -13 89 -16 130 -3 41 -12 109 -20 150
-8 41 -17 104 -20 140 -4 36 -11 81 -15 100 -5 19 -17 87 -25 150 -9 63 -21
132 -26 153 -6 22 -17 76 -25 120 -22 127 -34 186 -54 267 -10 41 -28 120 -40
175 -12 55 -38 161 -58 235 -19 74 -41 160 -48 190 -7 30 -19 75 -27 100 -8
25 -24 77 -35 115 -51 177 -74 253 -87 285 -14 37 -36 104 -60 180 -8 25 -28
83 -45 130 -17 47 -36 101 -42 120 -5 19 -14 40 -18 45 -4 6 -13 26 -18 45 -6
19 -45 118 -87 220 -42 102 -80 196 -84 210 -5 14 -24 57 -43 95 -20 39 -39
81 -43 94 -6 21 -160 347 -185 392 -12 23 -95 179 -145 274 -23 44 -66 121
-95 170 -28 50 -67 117 -85 150 -18 33 -52 90 -76 127 -44 68 -117 183 -154
243 -11 18 -51 78 -90 135 -38 56 -81 119 -94 139 -68 104 -380 512 -506 663
-213 253 -379 425 -585 604 -24 22 -55 50 -69 63 -13 13 -65 58 -115 100 -50
42 -100 84 -110 93 -45 41 -366 291 -440 343 -31 22 -92 65 -134 95 -42 31
-102 71 -132 90 -30 19 -57 37 -60 40 -3 3 -23 17 -45 31 -132 86 -196 126
-242 153 -192 114 -302 176 -310 176 -5 0 -31 15 -58 33 -28 18 -99 57 -160
87 -60 30 -136 69 -167 86 -31 18 -67 36 -80 39 -13 4 -57 23 -98 42 -106 49
-146 67 -215 96 -33 14 -101 43 -151 65 -51 22 -107 43 -125 47 -19 4 -45 13
-59 21 -25 14 -75 33 -160 61 -25 8 -83 28 -130 44 -141 49 -289 92 -490 144
-74 20 -145 40 -158 45 -12 5 -52 14 -90 20 -37 6 -78 15 -92 20 -14 6 -63 17
-110 26 -212 39 -361 65 -435 74 -44 6 -116 17 -160 26 -44 8 -143 19 -220 24
-77 6 -169 15 -205 21 -82 12 -963 20 -1126 9z"/>
<path d="M30775 31094 c-132 -7 -285 -18 -340 -23 -219 -22 -381 -42 -410 -51
-16 -5 -69 -14 -117 -19 -48 -6 -104 -15 -125 -20 -21 -6 -69 -15 -108 -21
-38 -6 -106 -19 -150 -29 -44 -10 -125 -28 -180 -41 -55 -12 -111 -26 -125
-32 -14 -5 -61 -18 -105 -28 -117 -27 -452 -127 -470 -141 -6 -4 -33 -13 -60
-19 -28 -6 -63 -17 -80 -24 -52 -24 -266 -106 -276 -106 -6 0 -36 -12 -67 -26
-70 -31 -78 -35 -172 -74 -126 -52 -586 -276 -614 -299 -6 -5 -55 -33 -109
-62 -54 -30 -118 -65 -142 -79 -91 -51 -354 -220 -460 -295 -419 -299 -683
-516 -985 -811 -105 -102 -331 -339 -342 -358 -4 -7 -25 -32 -48 -57 -98 -105
-377 -458 -470 -594 -192 -283 -265 -398 -364 -575 -48 -85 -91 -162 -96 -170
-30 -51 -270 -545 -270 -556 0 -3 -16 -42 -36 -87 -20 -45 -44 -104 -54 -132
-10 -27 -30 -81 -44 -120 -38 -100 -104 -291 -121 -350 -8 -27 -18 -59 -23
-70 -9 -18 -34 -108 -82 -290 -10 -38 -27 -105 -39 -147 -12 -43 -21 -86 -21
-96 0 -10 -7 -42 -15 -72 -8 -30 -20 -82 -25 -115 -6 -33 -15 -78 -20 -100
-12 -46 -46 -259 -61 -385 -6 -47 -17 -125 -25 -175 -9 -49 -19 -164 -25 -255
-5 -91 -13 -212 -19 -270 -12 -138 -12 -742 0 -895 6 -66 15 -226 20 -355 5
-129 16 -307 24 -395 9 -88 20 -225 26 -305 20 -293 73 -783 103 -957 9 -48
21 -117 27 -153 27 -166 81 -423 115 -550 14 -52 32 -120 40 -150 35 -140 139
-445 219 -643 145 -356 345 -715 605 -1084 282 -402 800 -936 1245 -1286 203
-159 378 -290 501 -375 121 -84 409 -275 469 -312 31 -19 89 -56 129 -82 40
-26 75 -48 79 -48 4 0 34 -17 65 -37 32 -20 83 -51 113 -68 30 -18 96 -56 145
-85 50 -28 117 -67 150 -85 33 -18 78 -43 100 -55 115 -66 721 -373 930 -472
211 -99 337 -158 340 -158 2 0 60 -27 129 -60 69 -33 128 -60 131 -60 3 0 45
-19 93 -41 306 -145 359 -170 372 -179 8 -6 26 -15 40 -21 103 -47 452 -228
570 -296 19 -11 96 -56 170 -98 74 -43 181 -108 237 -144 57 -36 130 -83 163
-104 33 -21 104 -71 158 -111 53 -39 111 -80 127 -91 34 -21 55 -38 250 -203
149 -126 299 -275 387 -382 29 -36 59 -72 66 -80 22 -26 127 -173 152 -215
115 -187 210 -420 254 -625 51 -237 37 -587 -34 -855 -34 -129 -42 -153 -140
-425 -7 -19 -18 -42 -25 -50 -6 -8 -19 -35 -28 -60 -10 -25 -45 -99 -78 -165
-34 -66 -70 -138 -82 -160 -11 -22 -31 -58 -45 -80 -14 -22 -30 -49 -36 -60
-113 -207 -479 -736 -699 -1010 -27 -33 -97 -121 -155 -195 -143 -180 -203
-253 -217 -265 -6 -5 -31 -35 -55 -65 -24 -30 -62 -76 -85 -101 -22 -25 -58
-67 -80 -94 -22 -27 -48 -57 -58 -68 -10 -10 -43 -49 -74 -85 -30 -37 -63 -74
-72 -82 -9 -8 -45 -49 -81 -90 -36 -41 -70 -79 -76 -85 -6 -5 -53 -57 -104
-115 -102 -116 -114 -129 -249 -280 -52 -58 -97 -107 -101 -110 -3 -3 -53 -57
-110 -120 -141 -157 -303 -332 -375 -405 -76 -78 -440 -389 -575 -492 -30 -23
-66 -52 -79 -65 -38 -35 -685 -525 -799 -603 -24 -17 -80 -56 -125 -88 -45
-32 -120 -84 -167 -115 -47 -32 -98 -67 -115 -78 -16 -12 -55 -38 -85 -58 -30
-20 -181 -120 -335 -223 -337 -224 -543 -359 -700 -458 -27 -18 -85 -54 -127
-81 -42 -27 -116 -74 -164 -104 -48 -30 -135 -86 -195 -125 -98 -64 -160 -104
-214 -137 -22 -14 -119 -78 -180 -118 -150 -101 -311 -207 -333 -220 -15 -8
-58 -38 -97 -65 -38 -28 -97 -68 -130 -90 -33 -21 -87 -59 -120 -84 -33 -24
-79 -58 -102 -75 -23 -17 -54 -40 -69 -51 -16 -11 -85 -65 -154 -119 -299
-238 -508 -438 -646 -621 -139 -184 -208 -314 -251 -473 -22 -82 -27 -117 -27
-227 1 -112 4 -143 28 -225 41 -142 107 -268 170 -328 67 -63 118 -89 234
-118 128 -33 410 -34 606 -3 239 38 508 92 606 124 25 7 65 17 90 21 25 3 53
11 63 16 10 5 71 25 135 43 125 35 436 138 617 204 61 22 133 47 160 57 28 9
68 25 91 35 23 11 44 19 47 19 10 0 237 89 283 111 22 10 45 19 51 19 6 0 24
7 40 15 37 20 120 55 129 55 4 0 54 21 113 46 101 44 147 64 252 113 25 12 48
21 52 21 6 0 166 73 200 91 9 5 62 29 116 53 178 79 298 137 766 372 430 216
626 317 650 334 6 4 48 28 95 52 88 47 176 95 245 134 22 13 58 32 80 43 22
11 47 25 55 30 8 6 101 58 205 117 165 92 244 137 305 174 54 32 258 153 270
160 75 43 182 107 210 125 67 42 341 210 376 230 33 19 74 45 274 174 142 91
428 276 496 322 54 35 347 236 424 290 47 33 96 67 110 77 14 9 75 52 135 95
61 43 149 106 197 140 179 126 684 507 883 665 78 62 93 74 203 164 30 24 68
54 87 68 34 26 127 101 135 110 3 3 32 28 65 55 33 28 92 77 131 110 39 33 82
69 95 79 32 26 129 112 313 276 470 420 962 934 1342 1400 60 74 117 144 126
155 43 52 148 186 187 240 24 33 49 65 55 70 6 6 27 33 46 60 19 28 59 82 90
122 105 137 132 173 184 250 29 43 78 114 109 158 94 134 292 432 392 590 17
28 52 82 77 120 25 39 103 167 173 285 71 118 135 226 144 240 8 14 26 45 39
70 14 25 42 73 63 107 22 34 39 65 39 69 0 4 22 45 49 93 27 47 61 106 75 131
14 25 44 81 67 125 22 44 53 100 67 125 32 57 337 669 387 775 47 102 90 194
149 318 25 54 46 104 46 110 0 7 6 21 14 32 13 20 34 66 115 260 23 55 48 114
56 130 8 17 35 82 60 145 26 63 57 140 70 170 12 30 42 105 65 165 24 61 58
148 76 195 18 47 39 103 47 125 8 22 40 112 72 200 90 253 92 258 105 295 96
282 143 424 154 466 7 27 16 56 20 62 7 12 13 30 79 257 19 67 42 143 50 170
15 48 42 143 67 230 24 84 62 232 74 285 7 30 17 64 23 75 6 11 14 43 18 70 4
28 14 66 21 85 7 19 17 58 22 85 6 28 17 77 25 110 8 33 25 105 37 160 13 55
29 127 38 160 8 33 18 87 23 120 5 33 14 74 20 90 5 17 16 64 24 105 8 41 26
136 40 210 14 74 32 178 41 230 8 52 19 109 24 125 5 17 14 73 20 125 6 52 15
109 20 125 5 17 14 71 20 120 6 50 13 97 15 105 7 23 55 408 70 560 8 74 18
167 24 205 6 39 15 148 21 242 5 95 14 203 20 240 19 140 43 958 36 1293 -7
416 -22 749 -40 920 -8 74 -18 187 -21 250 -4 63 -11 138 -16 165 -5 28 -14
95 -19 150 -5 55 -16 145 -25 200 -8 55 -22 147 -30 205 -26 185 -53 344 -64
380 -6 19 -11 48 -11 64 0 16 -9 70 -21 120 -22 99 -30 138 -84 385 -20 90
-40 171 -44 180 -5 9 -12 39 -16 66 -4 28 -13 66 -20 85 -8 19 -16 49 -20 65
-3 17 -14 59 -25 95 -10 36 -32 113 -49 172 -16 59 -34 116 -39 125 -5 10 -12
35 -16 57 -4 21 -13 52 -21 70 -8 17 -28 76 -45 131 -17 55 -47 143 -66 195
-20 52 -44 118 -54 145 -47 131 -131 344 -165 420 -8 17 -39 89 -70 160 -31
72 -61 134 -66 140 -5 5 -9 15 -9 22 0 14 -196 413 -270 548 -27 50 -53 100
-59 112 -14 31 -179 318 -216 376 -16 26 -50 80 -75 119 -119 190 -322 485
-454 662 -145 194 -330 430 -364 464 -9 10 -37 42 -62 72 -149 181 -421 441
-760 729 -43 36 -186 151 -240 192 -14 11 -62 48 -108 84 -45 36 -101 77 -125
92 -23 15 -60 41 -82 58 -22 17 -71 53 -110 78 -38 26 -83 56 -100 67 -37 25
-206 134 -272 174 -152 93 -280 169 -293 174 -8 3 -56 29 -107 58 -84 48 -346
179 -498 249 -33 15 -76 35 -96 45 -20 10 -67 30 -105 45 -65 25 -104 41 -184
79 -19 9 -48 20 -65 25 -16 5 -66 24 -110 41 -101 40 -178 67 -235 85 -82 25
-144 47 -180 61 -19 8 -62 20 -95 29 -87 21 -190 52 -211 63 -11 5 -44 13 -74
17 -30 4 -68 13 -85 20 -16 6 -86 24 -155 39 -69 15 -159 36 -201 46 -42 11
-87 20 -101 20 -13 0 -49 7 -80 15 -30 8 -93 19 -139 24 -46 6 -122 17 -169
25 -197 34 -486 60 -870 76 -287 12 -405 11 -715 -6z"/>
</g>
</svg>
