<svg width="84" height="84" viewBox="0 0 84 84" fill="none" xmlns="http://www.w3.org/2000/svg">
<path d="M74.8277 23.7626C75.2577 23.7626 75.66 23.5339 75.8819 23.1195C76.2148 22.5192 76.0068 21.7618 75.4242 21.4188C72.9412 19.9896 70.1115 19.2322 67.2401 19.2322C64.3688 19.2322 61.539 19.9896 59.0561 21.4188C58.4735 21.7475 58.2654 22.5192 58.5983 23.1195C58.9174 23.7197 59.6664 23.9341 60.249 23.5911C62.3713 22.362 64.7988 21.7189 67.254 21.7189C69.7092 21.7189 72.1367 22.362 74.259 23.5911C74.4254 23.7197 74.6335 23.7626 74.8277 23.7626Z" fill="#464F56"></path>
<path d="M67.2399 24.8772C65.3118 24.8772 63.3976 25.3917 61.7192 26.3492C61.1366 26.6779 60.9285 27.4497 61.2614 28.0499C61.5943 28.6502 62.3295 28.8645 62.9121 28.5215C64.2299 27.7641 65.728 27.3639 67.2538 27.3639C68.7796 27.3639 70.2777 27.7641 71.5955 28.5215C71.7758 28.6359 71.9839 28.6787 72.1781 28.6787C72.6081 28.6787 73.0104 28.4501 73.2323 28.0356C73.5652 27.4354 73.3572 26.6779 72.7746 26.3349C71.0823 25.3917 69.168 24.8772 67.2399 24.8772Z" fill="#464F56"></path>
<path d="M78.2953 16.1309C74.9385 14.1873 71.11 13.1726 67.2399 13.1726C63.3698 13.1726 59.5413 14.2016 56.1845 16.1309C55.6019 16.4739 55.3938 17.2314 55.7268 17.8316C56.0458 18.4319 56.7948 18.6462 57.3774 18.3032C60.3736 16.574 63.7998 15.6593 67.2538 15.6593C70.7216 15.6593 74.1339 16.574 77.1301 18.3032C77.3104 18.4176 77.5185 18.4605 77.7127 18.4605C78.1427 18.4605 78.545 18.2318 78.7669 17.8173C79.086 17.2314 78.8779 16.4739 78.2953 16.1309Z" fill="#464F56"></path>
<path d="M71.9427 31.4372H62.5242C60.4435 31.4372 58.5431 32.4233 57.3086 34.1383C56.074 35.8533 55.6995 38.0113 56.2821 40.055L60.9983 56.3615C61.7196 58.8625 63.6339 60.5918 66.0197 61.0348V61.8495C66.0197 67.0944 61.8861 71.3533 56.7953 71.3533H39.8585C34.7677 71.3533 30.6341 67.0944 30.6341 61.8495V45.5572H33.0061C36.5849 45.5572 39.4978 42.556 39.4978 38.8688V16.6884C39.4978 13.0012 36.5849 10 33.0061 10H11.4918C7.91297 10 5 13.0012 5 16.6884V38.8545C5 42.5417 7.91297 45.5429 11.4918 45.5429H28.2205V61.8352C28.2205 68.4521 33.45 73.8257 39.8585 73.8257H56.7953C63.2177 73.8257 68.4333 68.4378 68.4333 61.8352V61.0206C70.8192 60.5775 72.7334 58.8483 73.4547 56.3472L78.1709 40.0407C78.7674 37.997 78.3929 35.839 77.1445 34.124C75.9238 32.409 74.0234 31.4372 71.9427 31.4372ZM7.4136 38.8545V16.6884C7.4136 14.3732 9.24461 12.4867 11.4918 12.4867H33.0061C35.2532 12.4867 37.0842 14.3732 37.0842 16.6884V38.8545C37.0842 41.1697 35.2532 43.0562 33.0061 43.0562H11.4918C9.24461 43.0562 7.4136 41.184 7.4136 38.8545ZM75.8683 39.3404L71.1521 55.647C70.514 57.8621 68.7107 58.6625 67.2404 58.6625C65.77 58.6625 63.9668 57.8764 63.3287 55.647L58.6124 39.3404C58.2379 38.0542 58.4737 36.6965 59.2505 35.6246C60.0273 34.5527 61.2203 33.9239 62.5242 33.9239H71.9427C73.2466 33.9239 74.4396 34.5385 75.2164 35.6246C76.007 36.6965 76.2428 38.0542 75.8683 39.3404Z" fill="#464F56"></path>
<path d="M22.3248 32.6804H14.4876C13.8217 32.6804 13.2808 33.2378 13.2808 33.9238C13.2808 34.6098 13.8217 35.1671 14.4876 35.1671H22.3248C22.9907 35.1671 23.5316 34.6098 23.5316 33.9238C23.5316 33.2378 22.9907 32.6804 22.3248 32.6804Z" fill="#464F56"></path>
<path d="M27.3052 33.9238C27.3052 34.6098 27.8462 35.1671 28.512 35.1671H31.522C32.1878 35.1671 32.7288 34.6098 32.7288 33.9238C32.7288 33.2378 32.1878 32.6804 31.522 32.6804H28.512C27.8462 32.6804 27.3052 33.2378 27.3052 33.9238Z" fill="#464F56"></path>
<path d="M22.3248 37.4536H14.4876C13.8217 37.4536 13.2808 38.011 13.2808 38.697C13.2808 39.383 13.8217 39.9403 14.4876 39.9403H22.3248C22.9907 39.9403 23.5316 39.383 23.5316 38.697C23.5316 38.011 22.9907 37.4536 22.3248 37.4536Z" fill="#464F56"></path>
<path d="M32.7288 38.697C32.7288 38.011 32.1878 37.4536 31.522 37.4536H28.512C27.8462 37.4536 27.3052 38.011 27.3052 38.697C27.3052 39.383 27.8462 39.9403 28.512 39.9403H31.522C32.1878 39.9403 32.7288 39.383 32.7288 38.697Z" fill="#464F56"></path>
<path d="M14.4876 29.8509H30.0095C30.6753 29.8509 31.2163 29.2935 31.2163 28.6075V16.4455C31.2163 15.7595 30.6753 15.2021 30.0095 15.2021H14.4876C13.8217 15.2021 13.2808 15.7595 13.2808 16.4455V28.6075C13.2808 29.2935 13.8217 29.8509 14.4876 29.8509ZM15.6944 17.6889H28.8027V27.3499H15.6944V17.6889Z" fill="#464F56"></path>
</svg>