<svg width="23" height="23" viewBox="0 0 23 23" fill="none" xmlns="http://www.w3.org/2000/svg">
<path d="M17.3503 6.05089C17.2892 6.05089 17.2273 6.0371 17.1694 6.00776C16.9704 5.90768 16.89 5.6651 16.9901 5.46592C18.1542 3.15329 19.7939 0.92126 20.2377 0.477701C20.5438 0.171558 20.9502 0.00184351 21.3824 9.15527e-05C21.3844 9.15527e-05 21.3868 9.15527e-05 21.3891 9.15527e-05C21.8199 9.15527e-05 22.2238 0.167201 22.5272 0.470828C22.6849 0.628459 22.6849 0.883974 22.5272 1.04147C22.3696 1.1991 22.1142 1.1991 21.9566 1.04147C21.8044 0.88932 21.5929 0.80599 21.3856 0.807158C21.168 0.808146 20.9631 0.893857 20.8083 1.04852C20.484 1.37268 18.8852 3.49596 17.7113 5.82884C17.6404 5.96971 17.4981 6.05089 17.3503 6.05089Z" fill="#707487"/>
<path d="M18.5612 2.4213H13.0216C12.3795 2.4213 11.7636 2.67636 11.3096 3.13043L0.236413 14.2035C-0.0788042 14.5187 -0.0788042 15.0297 0.236413 15.3449L7.65522 22.7637C7.97043 23.0789 8.48137 23.0789 8.79655 22.7637L19.8697 11.6905C20.3237 11.2365 20.5788 10.6207 20.5788 9.9785V4.43892C20.5789 3.32463 19.6755 2.4213 18.5612 2.4213ZM18.2066 6.5055C17.7338 6.9783 16.9673 6.9783 16.4946 6.5055C16.0218 6.0327 16.0218 5.26624 16.4946 4.79348C16.9674 4.32073 17.7339 4.32068 18.2066 4.79348C18.6794 5.26629 18.6794 6.03279 18.2066 6.5055Z" fill="#D43D21"/>
<path d="M17.351 6.05089C17.2032 6.05089 17.061 5.96971 16.9901 5.82866C16.89 5.62966 16.9704 5.38708 17.1694 5.28681C19.5019 4.11345 21.6252 2.51432 21.9495 2.18994C22.1044 2.0351 22.19 1.83016 22.1911 1.61265C22.1919 1.39631 22.1087 1.19353 21.9566 1.04147C21.8046 0.88941 21.5929 0.80599 21.3856 0.807158C21.1681 0.808146 20.9632 0.893857 20.8083 1.04852C20.6507 1.20615 20.3953 1.20615 20.2377 1.04852C20.0801 0.891117 20.0801 0.635511 20.2377 0.477881C20.5438 0.171513 20.9501 0.00184351 21.3824 9.15527e-05C21.3844 9.15527e-05 21.3867 9.15527e-05 21.3891 9.15527e-05C21.8198 9.15527e-05 22.2237 0.167201 22.5272 0.470828C22.8326 0.776027 22.9997 1.1827 22.9981 1.6158C22.9961 2.04786 22.8267 2.4544 22.5201 2.76059C22.0767 3.20432 19.8443 4.84447 17.5319 6.00794C17.474 6.0371 17.4117 6.05089 17.351 6.05089Z" fill="#7F8499"/>
<path d="M10.8943 16.6051C10.6157 16.6051 10.3899 16.3793 10.3899 16.1007V8.11132C10.3899 7.83271 10.6157 7.60689 10.8943 7.60689C11.1729 7.60689 11.3987 7.83271 11.3987 8.11132V16.1008C11.3987 16.3794 11.1729 16.6051 10.8943 16.6051Z" fill="white"/>
<path d="M8.04071 13.821C7.58282 13.821 7.15207 13.6425 6.82813 13.3186C6.5042 12.9948 6.32568 12.5641 6.32568 12.106C6.32568 11.6479 6.5042 11.2172 6.82813 10.8932C7.15207 10.5695 7.58278 10.391 8.04071 10.391C8.499 10.391 8.92976 10.5695 9.25329 10.8936C9.57722 11.2174 9.75574 11.6481 9.75574 12.106C9.75574 12.5641 9.57722 12.9948 9.25329 13.3187C8.92976 13.6425 8.49905 13.821 8.04071 13.821ZM8.04071 11.3998C7.85235 11.3998 7.675 11.4733 7.54145 11.6067C7.4079 11.7401 7.33454 11.9175 7.33454 12.106C7.33454 12.2945 7.40785 12.4719 7.54145 12.6051C7.80864 12.8725 8.27287 12.8713 8.54002 12.6055C8.67357 12.472 8.74693 12.2946 8.74693 12.106C8.74693 11.9175 8.67362 11.7401 8.54002 11.6069C8.54002 11.6067 8.54002 11.6067 8.54002 11.6065C8.40642 11.4733 8.22947 11.3998 8.04071 11.3998Z" fill="white"/>
<path d="M13.7477 13.821C13.2894 13.821 12.8587 13.6425 12.5352 13.3184C12.2112 12.9949 12.0327 12.5641 12.0327 12.106C12.0327 11.6479 12.2112 11.2172 12.5352 10.8933C12.8587 10.5695 13.2894 10.3911 13.7477 10.3911C14.2056 10.3911 14.6364 10.5696 14.9603 10.8935C15.2842 11.2174 15.4628 11.648 15.4628 12.1061C15.4628 12.5642 15.2842 12.9949 14.9603 13.3188C14.6363 13.6425 14.2056 13.821 13.7477 13.821ZM13.7477 11.3998C13.559 11.3998 13.382 11.4733 13.2485 11.6065C13.1149 11.7401 13.0416 11.9175 13.0416 12.106C13.0416 12.2946 13.1149 12.4719 13.2485 12.6052C13.5157 12.8721 13.9799 12.8728 14.247 12.6053C14.3806 12.4719 14.454 12.2946 14.454 12.1061C14.454 11.9175 14.3806 11.7402 14.247 11.607C14.247 11.6068 14.247 11.6068 14.247 11.6068C14.1135 11.4733 13.9361 11.3998 13.7477 11.3998Z" fill="white"/>
</svg>
