<svg width="24" height="21" viewBox="0 0 24 21" fill="none" xmlns="http://www.w3.org/2000/svg">
<path d="M17.315 1.13597C17.315 0.508601 16.8064 0 16.179 0H8.37474C7.74737 0 7.23877 0.508539 7.23877 1.13597V4.19263H17.315V1.13597ZM13.6535 2.4498C13.6535 2.64357 13.4964 2.80074 13.3025 2.80074H12.7452V3.35797C12.7452 3.55185 12.5881 3.70902 12.3943 3.70902H12.1916H12.1596C11.9657 3.70902 11.8085 3.55185 11.8085 3.35797V2.80074H11.2512C11.0575 2.80074 10.9004 2.64357 10.9004 2.4498V2.21502C10.9004 2.02125 11.0575 1.86402 11.2512 1.86402H11.8085V1.30679C11.8085 1.11296 11.9656 0.955794 12.1596 0.955794H12.1916H12.3943C12.5881 0.955794 12.7452 1.11296 12.7452 1.30679V1.86402H13.3025C13.4964 1.86402 13.6535 2.02119 13.6535 2.21502V2.4498Z" fill="#E0DCD3"/>
<path d="M13.3025 1.86408H12.7453V1.30685C12.7453 1.11303 12.5882 0.955856 12.3943 0.955856H12.1916H12.1596C11.9657 0.955856 11.8085 1.11303 11.8085 1.30685V1.86408H11.2513C11.0576 1.86408 10.9004 2.02125 10.9004 2.21508V2.44986C10.9004 2.64363 11.0576 2.8008 11.2513 2.8008H11.8085V3.35803C11.8085 3.55192 11.9657 3.70909 12.1596 3.70909H12.1916H12.3943C12.5882 3.70909 12.7453 3.55192 12.7453 3.35803V2.8008H13.3025C13.4964 2.8008 13.6535 2.64363 13.6535 2.44986V2.21508C13.6535 2.02125 13.4964 1.86408 13.3025 1.86408Z" fill="#E74424"/>
<path d="M22.864 4.19263H17.315H7.23875H1.13597C0.508601 4.19263 0 4.70117 0 5.32859V18.976C0 19.6034 0.508601 20.112 1.13597 20.112H22.864C23.4914 20.112 24 19.6035 24 18.976V5.32859C24 4.70123 23.4914 4.19263 22.864 4.19263ZM21.9522 6.94424C22.4437 6.94424 22.842 7.34268 22.842 7.83401C22.842 8.32546 22.4436 8.72378 21.9522 8.72378C21.4608 8.72378 21.0624 8.3254 21.0624 7.83401C21.0624 7.34268 21.4608 6.94424 21.9522 6.94424ZM21.9522 9.65158C22.4437 9.65158 22.842 10.05 22.842 10.5414C22.842 11.0328 22.4436 11.4311 21.9522 11.4311C21.4608 11.4311 21.0624 11.0327 21.0624 10.5414C21.0624 10.05 21.4608 9.65158 21.9522 9.65158ZM19.3111 6.94424C19.8025 6.94424 20.2009 7.34268 20.2009 7.83401C20.2009 8.32546 19.8025 8.72378 19.3111 8.72378C18.8197 8.72378 18.4213 8.3254 18.4213 7.83401C18.4212 7.34268 18.8197 6.94424 19.3111 6.94424ZM19.3111 9.65158C19.8025 9.65158 20.2009 10.05 20.2009 10.5414C20.2009 11.0328 19.8025 11.4311 19.3111 11.4311C18.8197 11.4311 18.4213 11.0327 18.4213 10.5414C18.4212 10.05 18.8197 9.65158 19.3111 9.65158ZM17.1158 13.5377V17.2575C17.1158 17.7269 16.7352 18.1075 16.2658 18.1075H2.90647C2.43715 18.1075 2.05654 17.7269 2.05654 17.2575V7.04698C2.05654 6.57759 2.43708 6.19717 2.90647 6.19717H8.37471H16.179H16.2658C16.7352 6.19717 17.1158 6.57759 17.1158 7.04698V13.1554V13.5377ZM22.0848 18.1075H19.0934C18.7171 18.1075 18.4119 17.8023 18.4119 17.4259C18.4119 17.0494 18.7171 16.7443 19.0934 16.7443H22.0848C22.4613 16.7443 22.7664 17.0494 22.7664 17.4259C22.7664 17.8023 22.4613 18.1075 22.0848 18.1075ZM22.151 16.1763H19.1596C18.7833 16.1763 18.478 15.8711 18.478 15.4947C18.478 15.1182 18.7833 14.8131 19.1596 14.8131H22.151C22.5275 14.8131 22.8326 15.1182 22.8326 15.4947C22.8326 15.8712 22.5275 16.1763 22.151 16.1763ZM22.2173 14.2451H19.2259C18.8495 14.2451 18.5443 13.94 18.5443 13.5635C18.5443 13.1871 18.8495 12.8819 19.2259 12.8819H22.2173C22.5937 12.8819 22.8989 13.1871 22.8989 13.5635C22.8989 13.94 22.5937 14.2451 22.2173 14.2451Z" fill="#E74424"/>
<path d="M9.31735 14.8397L9.5825 13.5407H9.23755L9.31735 14.8397Z" fill="#F7F1E6"/>
<path d="M4.92079 10.8952C4.9489 10.812 5.02976 10.7584 5.11761 10.7659C5.20507 10.773 5.27646 10.839 5.29049 10.9256L5.65189 13.1461L6.27209 13.1466L6.80619 10.9119C6.82708 10.8248 6.90769 10.765 6.99503 10.7652C7.08456 10.7665 7.16111 10.8299 7.17926 10.9175L7.64178 13.1476L7.82526 13.1478L8.58056 8.9956C8.59783 8.90059 8.68243 8.83282 8.77987 8.83906C8.87638 8.84473 8.95344 8.9216 8.95936 9.01811L9.2131 13.1489L9.66204 13.1493L10.0122 11.4339C10.031 11.3419 10.112 11.277 10.2075 11.2812C10.3012 11.2852 10.3783 11.3566 10.3893 11.4498L10.5888 13.15L10.7903 13.1502L11.5869 9.00801C11.6051 8.91343 11.691 8.84654 11.7867 8.8534C11.8827 8.85951 11.9593 8.93594 11.9653 9.03201L12.2267 13.1514L12.6021 13.1517L12.834 11.9611C12.8511 11.8734 12.9265 11.8092 13.0158 11.8065C13.1073 11.8041 13.1843 11.8632 13.2067 11.9497L13.5178 13.1524L13.7518 13.1526L13.9259 12.462C13.9456 12.3837 14.0125 12.3263 14.0929 12.3185C14.173 12.3103 14.2499 12.3543 14.2842 12.4274L14.6255 13.1533L17.1154 13.1554V7.04698C17.1154 6.5776 16.7348 6.19717 16.2654 6.19717H16.1786H8.37457H2.90633C2.43701 6.19717 2.0564 6.5776 2.0564 7.04698V13.143L4.16156 13.1447L4.92079 10.8952Z" fill="#F7F1E6"/>
<path d="M7.73966 13.6192L7.75394 13.5407H7.72339L7.73966 13.6192Z" fill="#F7F1E6"/>
<path d="M5.90334 14.69L6.17803 13.5407H5.71631L5.90334 14.69Z" fill="#F7F1E6"/>
<path d="M13.6367 13.6107L13.6544 13.5407H13.6187L13.6367 13.6107Z" fill="#F7F1E6"/>
<path d="M10.6655 13.8008L10.7155 13.5407H10.635L10.6655 13.8008Z" fill="#F7F1E6"/>
<path d="M12.3193 14.6054L12.5267 13.5407H12.2517L12.3193 14.6054Z" fill="#F7F1E6"/>
<path d="M5.03701 11.7467L4.56494 13.1452L5.26463 13.1457L5.03701 11.7467Z" fill="#F7F1E6"/>
<path d="M8.67459 10.6153L8.21387 13.1481L8.8302 13.1486L8.67459 10.6153Z" fill="#F7F1E6"/>
<path d="M10.1486 12.6776L10.0522 13.1496L10.2041 13.1498L10.1486 12.6776Z" fill="#F7F1E6"/>
<path d="M16.6985 13.5407H14.0487L13.8244 14.4299C13.8031 14.5146 13.727 14.5741 13.6398 14.5743C13.6395 14.5743 13.6393 14.5743 13.6391 14.5743C13.552 14.5743 13.4759 14.5154 13.4541 14.4311L13.2238 13.5407H12.9163L12.4105 16.1379C12.3922 16.2322 12.3071 16.2988 12.2107 16.2921C12.1147 16.2859 12.0383 16.2094 12.0322 16.1135L11.8689 13.5407H11.1049L10.8075 15.0867C10.7897 15.1793 10.71 15.2447 10.6128 15.2416C10.5186 15.2381 10.441 15.1665 10.4299 15.0728L10.2501 13.5407H9.97257L9.40244 16.3336C9.38417 16.4232 9.30543 16.4865 9.21528 16.4865C9.21086 16.4865 9.20637 16.4864 9.20182 16.4861C9.10612 16.4794 9.03024 16.4029 9.02432 16.3071L8.85437 13.5407H8.14247L7.93998 14.6539C7.92364 14.7438 7.84577 14.8097 7.75425 14.8109C7.75344 14.8109 7.75276 14.8109 7.75188 14.8109C7.66142 14.8109 7.58318 14.7473 7.56479 14.6586L7.33293 13.5407H6.57097L6.05351 15.7056C6.03232 15.7941 5.95052 15.854 5.86056 15.8523C5.76954 15.8489 5.69348 15.7818 5.67889 15.692L5.32883 13.5408H2.0564V17.2576C2.0564 17.727 2.43694 18.1075 2.90633 18.1075H16.2659C16.7353 18.1075 17.1159 17.727 17.1159 17.2576V13.5378H16.7017L16.6985 13.5407Z" fill="#F7F1E6"/>
<path d="M13.0484 12.8626L12.9919 13.152L13.1232 13.1521L13.0484 12.8626Z" fill="#F7F1E6"/>
<path d="M11.6794 10.5538L11.1799 13.1506L11.8442 13.1511L11.6794 10.5538Z" fill="#F7F1E6"/>
<path d="M14.1663 13.0742L14.1465 13.153L14.2034 13.1531L14.1663 13.0742Z" fill="#F7F1E6"/>
<path d="M6.97912 11.8339L6.66528 13.1468L7.25151 13.1473L6.97912 11.8339Z" fill="#F7F1E6"/>
<path d="M17.1099 13.1457L2.0564 13.1431V13.5331V13.5407H17.1118L17.1099 13.1457Z" fill="#1B2327"/>
<path d="M14.627 13.1554H17.1159L14.626 13.1534L14.627 13.1554Z" fill="#1B2327"/>
<path d="M14.6258 13.1453L14.2845 12.4275C14.2502 12.3544 14.1733 12.3103 14.0932 12.3186C14.0128 12.3263 13.946 12.3838 13.9262 12.4621L13.7521 13.1527L13.6543 13.5407L13.6366 13.6107L13.6186 13.5407L13.5181 13.1525L13.2071 11.9498C13.1847 11.8633 13.1076 11.8041 13.0162 11.8065C12.9269 11.8092 12.8514 11.8734 12.8344 11.9611L12.6025 13.1517L12.5267 13.5407L12.3194 14.6054L12.2518 13.5407L12.2271 13.1514L11.9657 9.03206C11.9596 8.93599 11.8831 8.85949 11.7871 8.85344C11.6913 8.84665 11.6055 8.91354 11.5873 9.00806L10.7906 13.1502L10.7155 13.5407L10.6655 13.8007L10.635 13.5407L10.5892 13.1501L10.3896 11.4499C10.3787 11.3567 10.3016 11.2852 10.2078 11.2812C10.1124 11.2771 10.0314 11.342 10.0125 11.434L9.6624 13.1493L9.58248 13.5406L9.31733 14.8396L9.23753 13.5406L9.21347 13.1489L8.95973 9.01816C8.9538 8.92165 8.87675 8.84478 8.78024 8.8391C8.6828 8.83281 8.59819 8.90058 8.58092 8.99565L7.82563 13.1478L7.75418 13.5407L7.73991 13.6192L7.72364 13.5407L7.64209 13.1476L7.17956 10.9175C7.16142 10.8299 7.0848 10.7666 6.99533 10.7653C6.90799 10.765 6.82738 10.8248 6.80649 10.912L6.27239 13.1466L6.17813 13.5408L5.90344 14.6901L5.71641 13.5408L5.6522 13.1461L5.29079 10.9257C5.2767 10.839 5.20538 10.7731 5.11791 10.7659C5.03007 10.7584 4.94921 10.812 4.92109 10.8953L4.16181 13.1448L2.05664 13.1431V13.5408H4.28469C4.36667 13.5408 4.45189 13.4808 4.47814 13.403L4.56517 13.1452L5.03718 11.7468L5.26479 13.1457L5.32907 13.5407L5.67913 15.6919C5.69372 15.7817 5.76978 15.8489 5.8608 15.8522C5.9507 15.8539 6.03256 15.7941 6.05375 15.7055L6.57121 13.5406L6.66535 13.1468L6.97919 11.8338L7.25157 13.1473L7.33318 13.5406L7.56503 14.6585C7.58342 14.7473 7.66167 14.8108 7.75213 14.8108C7.753 14.8108 7.75368 14.8108 7.7545 14.8108C7.84602 14.8096 7.92388 14.7438 7.94022 14.6538L8.14271 13.5406L8.21416 13.1481L8.67494 10.6152L8.83055 13.1486L8.85468 13.5406L9.02463 16.307C9.03055 16.4028 9.10642 16.4793 9.20212 16.486C9.20667 16.4863 9.21116 16.4865 9.21559 16.4865C9.30574 16.4865 9.38448 16.423 9.40274 16.3335L9.97288 13.5406L10.0527 13.1496L10.1491 12.6776L10.2045 13.1497L10.2504 13.5407L10.4302 15.0728C10.4413 15.1664 10.5189 15.2381 10.6131 15.2416C10.7103 15.2447 10.79 15.1792 10.8078 15.0866L11.1052 13.5407L11.1802 13.1506L11.6797 10.5538L11.8446 13.1511L11.8693 13.5407L12.0325 16.1134C12.0386 16.2094 12.115 16.2859 12.211 16.2921C12.3074 16.2988 12.3925 16.2322 12.4108 16.1378L12.9166 13.5407L12.9923 13.1521L13.0487 12.8626L13.1235 13.1522L13.224 13.5407L13.4543 14.431C13.4762 14.5154 13.5522 14.5743 13.6394 14.5743C13.6396 14.5743 13.6398 14.5743 13.64 14.5743C13.7273 14.574 13.8033 14.5146 13.8247 14.4299L14.0489 13.5407L14.1467 13.153L14.1665 13.0742L14.2036 13.1531L14.3328 13.4279C14.3643 13.4949 14.4317 13.5377 14.5057 13.5377H16.7019H17.116V13.1431L14.6258 13.1453Z" fill="#2B3237"/>
<path d="M19.3112 8.72385C19.8026 8.72385 20.2009 8.32548 20.2009 7.83408C20.2009 7.34267 19.8026 6.94431 19.3112 6.94431C18.8198 6.94431 18.4214 7.34267 18.4214 7.83408C18.4214 8.32548 18.8198 8.72385 19.3112 8.72385Z" fill="#F7F1E6"/>
<path d="M21.9523 8.72385C22.4437 8.72385 22.842 8.32548 22.842 7.83408C22.842 7.34267 22.4437 6.94431 21.9523 6.94431C21.4609 6.94431 21.0625 7.34267 21.0625 7.83408C21.0625 8.32548 21.4609 8.72385 21.9523 8.72385Z" fill="#F7F1E6"/>
<path d="M19.3112 11.4311C19.8026 11.4311 20.2009 11.0328 20.2009 10.5414C20.2009 10.0499 19.8026 9.65158 19.3112 9.65158C18.8198 9.65158 18.4214 10.0499 18.4214 10.5414C18.4214 11.0328 18.8198 11.4311 19.3112 11.4311Z" fill="#F7F1E6"/>
<path d="M21.9523 11.4311C22.4437 11.4311 22.842 11.0328 22.842 10.5414C22.842 10.0499 22.4437 9.65158 21.9523 9.65158C21.4609 9.65158 21.0625 10.0499 21.0625 10.5414C21.0625 11.0328 21.4609 11.4311 21.9523 11.4311Z" fill="#F7F1E6"/>
<path d="M22.2172 12.882H19.2258C18.8494 12.882 18.5442 13.1872 18.5442 13.5636C18.5442 13.94 18.8494 14.2452 19.2258 14.2452H22.2172C22.5936 14.2452 22.8988 13.94 22.8988 13.5636C22.8988 13.1872 22.5936 12.882 22.2172 12.882Z" fill="#1B2327"/>
<path d="M22.151 14.8132H19.1596C18.7833 14.8132 18.478 15.1183 18.478 15.4948C18.478 15.8712 18.7833 16.1764 19.1596 16.1764H22.151C22.5274 16.1764 22.8326 15.8712 22.8326 15.4948C22.8326 15.1182 22.5275 14.8132 22.151 14.8132Z" fill="#1B2327"/>
<path d="M22.0848 16.7443H19.0934C18.717 16.7443 18.4119 17.0494 18.4119 17.4259C18.4119 17.8023 18.717 18.1075 19.0934 18.1075H22.0848C22.4612 18.1075 22.7664 17.8023 22.7664 17.4259C22.7664 17.0494 22.4612 16.7443 22.0848 16.7443Z" fill="#1B2327"/>
</svg>