<svg width="23" height="24" viewBox="0 0 23 24" fill="none" xmlns="http://www.w3.org/2000/svg">
<path d="M14.8022 13.4045C14.2912 14.7502 14.4222 16.2582 14.5488 17.7166C14.6925 19.3723 14.8283 20.9361 13.9537 21.9228C13.2628 22.7022 11.9656 23.1136 9.988 23.1802C8.02798 23.2461 6.66666 22.8128 5.94254 21.8917C4.6353 20.2289 5.49233 17.1555 6.05954 15.1218C6.24328 14.4629 6.39159 13.9308 6.45764 13.515C6.36859 13.5194 6.27866 13.5222 6.1874 13.5222C5.9986 13.522 5.81497 13.5115 5.6357 13.4935C5.56541 13.8658 5.42366 14.3744 5.27617 14.9033C4.66493 17.0951 3.74121 20.4075 5.30324 22.3943C6.1415 23.4607 7.58945 24 9.61104 24C9.74326 24 9.87827 23.9977 10.0154 23.9931C12.228 23.9185 13.7154 23.4178 14.5623 22.4623C15.6687 21.214 15.5113 19.4003 15.3589 17.6463C15.1556 15.3045 14.9618 13.0701 17.3133 11.7369C17.144 11.5265 17.0046 11.2912 16.9012 11.0372C15.8746 11.6223 15.1813 12.4059 14.8022 13.4045Z" fill="#2B3237"/>
<path d="M6.45759 13.5151C8.82106 13.3989 10.3941 11.814 10.5627 11.0301C9.54628 11.8247 8.23544 12.2617 6.65522 12.3321C6.60462 12.343 6.5524 12.3492 6.49884 12.3496C6.47206 12.3498 6.44522 12.3498 6.41856 12.3498C4.50356 12.3498 2.95564 11.8442 1.81664 10.8463C1.81263 10.8427 1.80891 10.839 1.8049 10.8355C1.79898 10.855 1.7959 10.8762 1.7959 10.8992C1.7959 11.593 3.29327 13.2582 5.63565 13.4935C5.81487 13.5115 5.99849 13.522 6.18735 13.5222C6.27861 13.5222 6.36854 13.5194 6.45759 13.5151Z" fill="#C3BFB8"/>
<path d="M0.993579 6.37726C0.988351 6.26485 0.984749 6.15192 0.984749 6.03777C0.984749 4.22722 1.68452 2.3275 3.00298 1.60171C2.79901 1.4635 2.65663 1.23317 2.62962 0.966064C2.11051 1.26332 1.64984 1.71301 1.27469 2.29991C0.629518 3.30926 0.27417 4.63677 0.27417 6.03777C0.27417 6.211 0.280386 6.38249 0.291307 6.55235C0.404935 6.45226 0.545401 6.38324 0.703004 6.36123C0.803096 6.34734 0.900923 6.35431 0.993579 6.37726Z" fill="#2B3237"/>
<path d="M11.9085 6.35409C12.0661 6.37605 12.2066 6.44512 12.3202 6.54527C12.3311 6.37535 12.3373 6.20386 12.3373 6.03063C12.3373 4.62963 11.982 3.30212 11.3369 2.29277C10.9617 1.70581 10.501 1.25613 9.98194 0.95887C9.95493 1.22603 9.8126 1.45631 9.60864 1.59457C10.927 2.32043 11.6268 4.22014 11.6268 6.03063C11.6268 6.14473 11.6232 6.25772 11.618 6.37012C11.7107 6.34712 11.8085 6.34021 11.9085 6.35409Z" fill="#2B3237"/>
<path d="M6.41862 12.3499C6.44523 12.3499 6.47207 12.3499 6.49891 12.3496C6.55247 12.3493 6.60469 12.3431 6.65529 12.3321C8.2355 12.2618 9.54634 11.8248 10.5628 11.0302C10.6417 10.9684 10.7194 10.9052 10.7948 10.8391C11.8002 9.95828 12.4261 8.73864 12.6047 7.31208C12.6424 7.01099 12.5259 6.72651 12.3201 6.54527C12.2065 6.44517 12.066 6.3761 11.9084 6.35409C11.8084 6.3402 11.7106 6.34712 11.618 6.37006C11.3 6.44883 11.0456 6.72669 11.0003 7.08854C10.7154 9.36319 8.93644 10.6563 6.12404 10.6353C6.12212 10.6353 6.12026 10.6353 6.11829 10.6353C6.11347 10.6353 6.1087 10.636 6.10394 10.6361C3.51427 10.5405 1.88311 9.26495 1.61147 7.0958C1.56616 6.73395 1.31183 6.45615 0.99384 6.37732C0.901126 6.35438 0.803299 6.34746 0.703323 6.36135C0.54572 6.38331 0.405196 6.45238 0.291627 6.55247C0.085866 6.73377 -0.0306661 7.01825 0.00703547 7.31934C0.184971 8.74021 0.806785 9.95555 1.80515 10.8356C1.80916 10.8391 1.81288 10.8428 1.81688 10.8464C2.95566 11.8442 4.50357 12.3499 6.41862 12.3499Z" fill="#E0DCD3"/>
<path d="M2.94507 1.60171C3.07293 1.68838 3.22467 1.73927 3.38797 1.73927C3.84137 1.73927 4.61951 1.35157 4.61951 0.873296C4.61951 0.395026 3.84137 0.00726318 3.38797 0.00726318C2.9345 0.00726318 2.56689 0.395026 2.56689 0.873296C2.56689 0.904666 2.56864 0.93557 2.57172 0.966069C2.59873 1.23317 2.74105 1.46351 2.94507 1.60171Z" fill="#E6A123"/>
<path d="M10.0398 0.958806C10.0429 0.928307 10.0446 0.897403 10.0446 0.866033C10.0446 0.387763 9.67701 0 9.22355 0C8.77008 0 7.99194 0.387763 7.99194 0.866033C7.99194 1.34436 8.77008 1.73207 9.22355 1.73207C9.38684 1.73207 9.53858 1.68118 9.6665 1.5945C9.87046 1.45625 10.0128 1.22597 10.0398 0.958806Z" fill="#E6A123"/>
<path d="M19.4993 7.17638C17.9504 7.17638 16.6948 8.43197 16.6948 9.98082C16.6948 10.3547 16.7686 10.7111 16.9013 11.0373C17.0047 11.2913 17.1442 11.5266 17.3134 11.737C17.8275 12.376 18.6154 12.7853 19.4993 12.7853C21.0482 12.7853 22.3038 11.5297 22.3038 9.98082C22.3038 8.43197 21.0482 7.17638 19.4993 7.17638ZM19.4993 12.2792C18.2299 12.2792 17.2009 11.2501 17.2009 9.98082C17.2009 8.71145 18.23 7.68247 19.4993 7.68247C20.7686 7.68247 21.7976 8.71145 21.7976 9.98082C21.7976 11.2501 20.7686 12.2792 19.4993 12.2792Z" fill="#E0DCD3"/>
<path d="M19.4993 7.68241C18.2299 7.68241 17.2009 8.71139 17.2009 9.98076C17.2009 11.2501 18.23 12.2791 19.4993 12.2791C20.7686 12.2791 21.7976 11.2501 21.7976 9.98076C21.7976 8.71145 20.7686 7.68241 19.4993 7.68241ZM19.4993 11.0695C18.898 11.0695 18.4106 10.5821 18.4106 9.98081C18.4106 9.37956 18.898 8.89212 19.4993 8.89212C20.1006 8.89212 20.588 9.37962 20.588 9.98081C20.588 10.5821 20.1006 11.0695 19.4993 11.0695Z" fill="#F7F1E6"/>
<path d="M19.4994 11.1172C20.127 11.1172 20.6357 10.6084 20.6357 9.98082C20.6357 9.35324 20.127 8.84448 19.4994 8.84448C18.8718 8.84448 18.363 9.35324 18.363 9.98082C18.363 10.6084 18.8718 11.1172 19.4994 11.1172Z" fill="#2B3237"/>
</svg>