<svg width="25" height="26" viewBox="0 0 25 26" fill="none" xmlns="http://www.w3.org/2000/svg">
<path d="M11.6861 8.47735C11.6598 8.48126 11.6342 8.48281 11.6084 8.48544V12.9752C12.2075 13.0818 12.8743 12.9856 13.3499 12.9199V8.50889C13.2999 8.50249 13.2507 8.49272 13.2028 8.47789C12.5824 8.28616 12.4946 8.35753 11.6861 8.47735Z" fill="#D43D21"/>
<path d="M12.4901 6.10352e-05C11.4037 6.10352e-05 10.5229 0.880778 10.5229 1.96725C10.5229 2.73657 10.9648 3.40229 11.6083 3.72572V3.99362C11.6202 3.99315 11.6321 3.99274 11.6437 3.9922H13.2617C13.2901 3.99362 13.3196 3.99449 13.3498 3.99497V3.73718C14.0055 3.41813 14.4574 2.74553 14.4574 1.96732C14.4574 0.880779 13.5767 6.10352e-05 12.4901 6.10352e-05Z" fill="#D43D21"/>
<path d="M11.6084 14.8227V18.458C12.292 18.8662 12.8879 18.6068 13.1661 18.4694C13.2263 18.4398 13.2878 18.4063 13.3499 18.3708V14.9184C13.2763 14.8856 13.2001 14.8529 13.1184 14.8206L13.1184 14.8267C12.6349 14.6021 12.3417 14.6523 11.7385 14.7726C11.6937 14.7893 11.6509 14.806 11.6084 14.8227Z" fill="#D43D21"/>
<path d="M11.6086 20.9394V24.7127C11.608 24.7254 11.6067 24.7381 11.6067 24.751C11.6067 25.2329 11.997 25.6237 12.4784 25.6237C12.9598 25.6237 13.35 25.233 13.3501 24.7511V21.0923C13.2536 21.0171 13.1512 20.9439 13.0429 20.8732C12.5661 20.611 12.0817 20.6181 11.6086 20.9394Z" fill="#D43D21"/>
<path d="M13.1186 14.8942L13.1186 14.888C13.2003 14.9204 13.2765 14.9531 13.3501 14.9858C14.7927 15.6288 14.6975 16.335 14.6975 16.688C14.6975 17.059 14.4667 17.4496 14.0287 17.8227C13.8095 18.0096 13.5752 18.1745 13.3501 18.3035C13.288 18.339 13.2265 18.3724 13.1663 18.4021C12.8881 18.5394 12.2922 18.7988 11.6086 18.3906C11.278 18.1831 11.0648 18.0983 10.7087 17.8227C10.2537 17.4705 10.0421 17.011 10.0421 16.6218C10.0421 16.2421 9.93335 15.547 11.6085 14.8901C11.651 14.8735 11.6938 14.8568 11.7387 14.8402C12.3418 14.7198 12.6351 14.6695 13.1186 14.8942ZM11.6085 12.9078C11.5695 12.9009 11.5307 12.8933 11.4923 12.8846C10.8238 12.7325 10.1694 12.5981 8.77031 12.2104C7.4305 11.8554 5.95589 11.2813 5.73659 10.9886C5.75364 10.9717 5.77885 10.9537 5.8211 10.9369C5.93884 10.8695 6.14966 10.8116 6.38554 10.7599C6.88264 10.6588 7.54851 10.6082 8.22266 10.5745C9.56261 10.5335 9.66451 10.6009 9.82376 10.5914C9.98295 10.5818 10.7974 10.5718 10.823 9.95262C10.8485 9.33346 10.4077 9.28831 10.0623 9.21869C9.51469 9.14395 9.74781 9.16713 9.00626 9.1767C7.7761 9.26937 4.00919 8.96488 3.53736 10.9452C3.53736 11.0031 3.529 11.038 3.52051 11.0896C3.6805 12.815 7.26201 13.5671 9.8489 14.079C8.9725 14.6794 8.5006 15.463 8.3154 16.4827C8.22266 17.5614 9.08215 18.5894 11.0795 19.7333C9.56261 20.8036 8.56806 21.8148 8.65251 23.0304C8.77516 23.9348 9.52473 25.1185 10.9504 25.9517C11.0922 26.0346 11.2967 26.0254 11.1494 25.7786C10.7921 25.1802 10.1724 24.0515 10.1186 23.34C10.0448 22.8242 10.2957 22.0909 11.3436 21.2198C11.4314 21.137 11.5198 21.0669 11.6085 21.0067C12.0816 20.6853 12.5659 20.6783 13.0428 20.9406C13.1511 21.0112 13.2534 21.0845 13.35 21.1597C14.2979 21.8982 14.6876 22.8296 14.6187 23.3401C14.5653 24.0473 13.961 25.1718 13.5944 25.7677C13.4717 25.9672 13.5981 26.0683 13.7927 25.9488C15.204 25.0829 15.962 23.9366 16.0848 23.0304C16.1693 21.8148 15.1747 20.8036 13.6643 19.7334C15.6552 18.5894 16.5147 17.5614 16.4219 16.4828C16.2367 15.4716 15.7648 14.6879 14.8884 14.079C17.4754 13.5671 21.0568 12.815 21.2168 11.0896C21.2083 11.038 21.2 11.0032 21.2 10.9453C20.7281 8.96495 16.9612 9.26944 15.7311 9.17677C14.9895 9.1672 15.0817 9.16268 14.7346 9.1641C14.3875 9.16545 13.9388 9.34809 13.9275 9.90147C13.9163 10.4548 14.5548 10.5974 14.9136 10.5914C15.1232 10.5879 15.1747 10.5335 16.5147 10.583C17.1888 10.6082 17.8547 10.6588 18.3432 10.7599C18.5877 10.8116 18.79 10.8695 18.9163 10.9369C18.95 10.9537 18.9837 10.9717 19.0007 10.9886C18.7814 11.2813 17.3068 11.8554 15.967 12.2104C14.7379 12.551 13.7178 12.7805 13.4461 12.8394C13.4151 12.8435 13.383 12.848 13.35 12.8525C12.8745 12.9182 12.2077 13.0144 11.6085 12.9078Z" fill="#2B3237"/>
<path d="M23.9129 6.11852C20.672 5.5179 18.1104 2.57516 17.391 1.98876C16.5736 1.32188 16.0089 1.47467 15.1916 2.9399C14.6812 3.85021 13.8838 4.00346 13.3498 3.99491C13.3197 3.99443 13.2901 3.99349 13.2618 3.99214H11.6438C11.6322 3.99275 11.6202 3.99315 11.6083 3.99356C11.0754 4.01283 10.2415 3.88054 9.71401 2.93984C8.89671 1.4746 8.32365 1.32181 7.51471 1.98869C6.78381 2.58433 4.14947 5.57936 0.839162 6.14157C-0.0805109 6.29773 -0.244348 6.73263 0.348121 7.15344C0.812204 7.483 1.48851 7.72906 2.42483 7.55882C2.42483 7.55882 3.5626 8.73864 5.40794 7.91278C5.40794 7.91278 6.36859 8.77968 7.9023 7.98752C7.9023 7.98752 9.0315 8.85442 10.245 8.10661C10.245 8.10661 10.8377 8.56415 11.6083 8.48544C11.6342 8.48281 11.6598 8.48119 11.6861 8.47735C12.4945 8.35759 12.5823 8.28615 13.2028 8.47789C13.2506 8.49272 13.2998 8.50249 13.3498 8.50889C13.9475 8.58559 14.6606 8.10661 14.6606 8.10661C15.8658 8.85449 17.0033 7.98752 17.0033 7.98752C18.537 8.77968 19.4891 7.91278 19.4891 7.91278C21.3431 8.73864 22.4808 7.55882 22.4808 7.55882C23.2557 7.69975 23.8525 7.55545 24.2983 7.31472C25.0789 6.89316 25.0016 6.3203 23.9129 6.11852Z" fill="#E0DCD3"/>
</svg>
