<svg width="16" height="15" viewBox="0 0 16 15" fill="none" xmlns="http://www.w3.org/2000/svg">
<path d="M15.3125 5.125C15.2578 5.125 15.2031 5.15234 15.1484 5.17969L10.5 6.875L10.1992 6.79297C10.8555 5.83594 11.375 4.85156 11.375 4.11328C11.375 2.25391 9.78906 0.75 7.875 0.75C5.93359 0.75 4.375 2.28125 4.375 4.11328C4.375 4.44141 4.48438 4.82422 4.64844 5.23438L0.546875 6.65625C0.21875 6.79297 0 7.12109 0 7.47656V14.3125C0 14.5859 0.191406 14.75 0.4375 14.75C0.492188 14.75 0.546875 14.75 0.601562 14.7227L5.25 13L9.95312 14.668C10.3086 14.7773 10.6914 14.8047 11.0469 14.668L15.1758 13.2188C15.5312 13.1094 15.75 12.7812 15.75 12.4258V5.5625C15.75 5.31641 15.5312 5.125 15.3125 5.125ZM4.8125 12.2344L0.847656 13.6836L0.820312 7.50391L4.8125 6.10938V12.2344ZM7.875 1.625C9.29688 1.625 10.5 2.74609 10.5 4.11328C10.5 4.85156 9.43359 6.54688 7.875 8.40625C6.28906 6.54688 5.25 4.85156 5.25 4.11328C5.25 2.74609 6.42578 1.625 7.875 1.625ZM10.0625 13.793L5.6875 12.2344V7.01172C6.34375 7.99609 7.10938 8.87109 7.51953 9.36328C7.60156 9.47266 7.73828 9.5 7.875 9.5C7.98438 9.5 8.12109 9.47266 8.20312 9.36328C8.55859 8.95312 9.13281 8.29688 9.67969 7.53125L10.0625 7.66797V13.793ZM10.9375 13.793V7.66797L14.875 6.19141L14.9023 12.3984L10.9375 13.793ZM8.53125 4.25C8.53125 3.89453 8.23047 3.59375 7.875 3.59375C7.49219 3.59375 7.21875 3.89453 7.21875 4.25C7.21875 4.63281 7.49219 4.90625 7.875 4.90625C8.23047 4.90625 8.53125 4.63281 8.53125 4.25Z" fill="#59C0ED"/>
</svg>
