<svg width="224" height="53" viewBox="0 0 224 53" fill="none" xmlns="http://www.w3.org/2000/svg">
<path d="M128.738 14.7986H122.886V38.2007H128.738V14.7986Z" fill="#E13D3D"/>
<path d="M137.62 23.6089H114.144V29.4595H137.62V23.6089Z" fill="#E13D3D"/>
<path fill-rule="evenodd" clip-rule="evenodd" d="M110.701 34.3464C109.462 32.006 108.774 29.3219 108.774 26.4996C108.774 17.1391 116.416 9.49871 125.847 9.49871C129.634 9.49871 133.076 10.7378 135.898 12.7335L134.797 13.8348L145.261 14.2481L144.848 3.85451L142.645 5.98841C138.032 2.27124 132.181 0 125.847 0C111.183 0 99.2734 11.8386 99.2734 26.4996C99.2734 31.5245 100.65 36.1361 103.06 40.1279V33.7953L110.701 34.3464Z" fill="#59C0ED"/>
<path fill-rule="evenodd" clip-rule="evenodd" d="M146.156 9.42993L146.363 15.4183L138.514 15.1428C141.268 18.1716 142.92 22.1638 142.92 26.5686C142.92 35.9295 135.279 43.5698 125.847 43.5698C120.683 43.5698 116.002 41.2295 112.904 37.5814L114.625 35.9986L104.23 35.2415L104.299 45.6347L106.02 44.0518C110.908 49.5583 117.999 52.9999 125.916 52.9999C140.58 52.9999 152.49 41.1613 152.49 26.4999C152.421 19.9608 150.08 14.0415 146.156 9.42993Z" fill="#59C0ED"/>
<path fill-rule="evenodd" clip-rule="evenodd" d="M18.7257 16.5194V39.8528H13.4246V24.0906L11.2907 39.8528H7.5041L5.30107 24.4348V39.7842H0V16.4507H7.84837C8.05485 17.8275 8.33044 19.4794 8.53692 21.4065L9.43195 27.3258L10.8091 16.4507H18.7257V16.5194Z" fill="#59C0ED"/>
<path fill-rule="evenodd" clip-rule="evenodd" d="M34.2155 30.561H26.6428V34.6906C26.6428 35.5854 26.7114 36.1361 26.8492 36.3425C26.987 36.6176 27.1935 36.6867 27.5378 36.6867C27.9512 36.6867 28.295 36.549 28.4328 36.2047C28.5706 35.8605 28.6393 35.2412 28.6393 34.2777V31.7309H34.1469V33.1077C34.1469 34.2777 34.0777 35.1726 33.9404 35.8605C33.8026 36.4803 33.4583 37.1687 32.9076 37.8567C32.3568 38.5451 31.6682 39.0957 30.8419 39.5086C30.016 39.8528 28.9145 40.0597 27.6752 40.0597C26.4359 40.0597 25.3343 39.8528 24.4397 39.5086C23.476 39.1644 22.7875 38.6829 22.2367 38.0635C21.6855 37.4438 21.3413 36.7558 21.1352 35.9983C20.9283 35.2412 20.8596 34.1399 20.8596 32.7635V27.1884C20.8596 25.5365 21.0665 24.2288 21.5482 23.2653C22.0302 22.3013 22.7188 21.5442 23.7512 21.0623C24.784 20.5807 25.9546 20.3052 27.3313 20.3052C28.9836 20.3052 30.2916 20.5807 31.3931 21.2005C32.4255 21.8198 33.1827 22.6455 33.6648 23.6781C34.0777 24.7108 34.2842 26.1562 34.2842 28.0146L34.2155 30.561ZM28.3637 27.4635V26.0867C28.3637 25.1232 28.295 24.4348 28.2263 24.1597C28.0886 23.8846 27.8821 23.7464 27.6069 23.7464C27.1935 23.7464 26.9184 23.8841 26.8497 24.0906C26.7806 24.3661 26.7119 24.9859 26.7119 26.0867V27.4635H28.3637Z" fill="#59C0ED"/>
<path fill-rule="evenodd" clip-rule="evenodd" d="M49.4303 16.5193V39.8528H43.5785V38.4764C43.0277 39.027 42.4083 39.5086 41.7888 39.7841C41.169 40.0592 40.5495 40.197 39.861 40.197C38.966 40.197 38.14 39.9905 37.5202 39.5086C36.832 39.027 36.4191 38.4764 36.2122 37.8566C36.0057 37.2373 35.937 36.2047 35.937 34.8283V25.8802C35.937 24.4347 36.0061 23.4025 36.2122 22.7828C36.4191 22.1635 36.832 21.6128 37.5202 21.1309C38.2087 20.6493 38.966 20.4429 39.9297 20.4429C40.6182 20.4429 41.3068 20.5802 41.9262 20.8558C42.5456 21.1309 43.0968 21.4751 43.5785 22.0257V16.5884L49.4303 16.5193ZM43.5785 25.5365C43.5785 24.848 43.5098 24.3661 43.372 24.1596C43.2342 23.9532 43.0277 23.8154 42.6834 23.8154C42.3392 23.8154 42.1327 23.9532 41.9949 24.1596C41.8575 24.3661 41.7884 24.848 41.7884 25.6051V34.9656C41.7884 35.7227 41.8575 36.2734 41.9949 36.4802C42.1327 36.7553 42.3392 36.8244 42.6834 36.8244C43.0277 36.8244 43.3029 36.6867 43.4407 36.4111C43.5785 36.136 43.6472 35.4476 43.6472 34.415L43.5785 25.5365Z" fill="#59C0ED"/>
<path fill-rule="evenodd" clip-rule="evenodd" d="M57.4846 16.5193V19.548H51.4954V16.5193H57.4846ZM57.4846 20.718V39.8528H51.4954V20.718H57.4846Z" fill="#59C0ED"/>
<path fill-rule="evenodd" clip-rule="evenodd" d="M72.4927 27.8764H66.9851V25.6738C66.9851 24.9167 66.916 24.3661 66.7787 24.0905C66.6409 23.8154 66.4344 23.6776 66.0901 23.6776C65.7458 23.6776 65.5393 23.815 65.4016 24.0218C65.2642 24.2283 65.1951 24.7789 65.1951 25.6047V34.6214C65.1951 35.3098 65.2642 35.7914 65.4702 36.1356C65.6767 36.4798 65.8836 36.6176 66.2275 36.6176C66.6409 36.6176 66.916 36.4107 67.0538 36.0669C67.1912 35.7227 67.2603 35.0343 67.2603 34.0708V31.7991L72.4927 31.8C72.4927 33.3141 72.4236 34.4841 72.3549 35.2412C72.2858 35.9982 71.9415 36.7558 71.3912 37.5815C70.8404 38.4077 70.1519 38.9583 69.2568 39.3712C68.3618 39.7841 67.3294 39.9905 66.0214 39.9905C64.3692 39.9905 63.0612 39.7154 62.0974 39.1643C61.1337 38.6137 60.4452 37.7879 60.0318 36.8244C59.6188 35.7918 59.4124 34.3463 59.4124 32.4879V27.1884C59.4124 25.5364 59.5501 24.3661 59.8944 23.5403C60.2387 22.7141 60.9268 21.957 61.9597 21.3377C63.0612 20.718 64.3005 20.3738 65.8836 20.3738C67.3985 20.3738 68.7065 20.718 69.8076 21.3377C70.9091 21.957 71.5977 22.7828 71.9419 23.7463C72.2862 24.7103 72.4927 26.0867 72.4927 27.8764Z" fill="#59C0ED"/>
<path fill-rule="evenodd" clip-rule="evenodd" d="M79.4458 28.0829H74.0073V26.7751C74.0073 25.3296 74.1451 24.1597 74.4894 23.3339C74.8333 22.5078 75.5218 21.8193 76.5546 21.2C77.5875 20.5807 78.8955 20.3052 80.5477 20.3052C82.5443 20.3052 83.9896 20.6494 85.0224 21.3378C86.0553 22.0258 86.606 22.9206 86.8125 23.8846C87.019 24.9168 87.0877 26.9816 87.0877 30.1481V39.7155H81.4423V37.9944C81.0981 38.6829 80.6164 39.1644 80.0657 39.5086C79.5145 39.8528 78.8263 39.9906 78.0691 39.9906C77.0363 39.9906 76.1413 39.7155 75.2462 39.1644C74.4203 38.6138 73.9382 37.3751 73.9382 35.4477V33.8648C73.9382 32.4193 74.1451 31.4558 74.6268 30.9738C75.1089 30.4228 76.2104 29.8726 78.0004 29.1841C79.9279 28.4271 80.9607 27.9451 81.0981 27.67C81.2358 27.3944 81.305 26.9129 81.305 26.0867C81.305 25.1232 81.2358 24.4348 81.0981 24.1597C80.9607 23.8846 80.6851 23.6777 80.3412 23.6777C79.9279 23.6777 79.7214 23.8155 79.584 24.091C79.4462 24.3665 79.4462 24.9859 79.4462 26.0871L79.4458 28.0829ZM81.305 30.6983C80.3412 31.3867 79.8592 31.9374 79.6527 32.4193C79.5149 32.9009 79.4458 33.5206 79.4458 34.4155C79.4458 35.379 79.5149 36.0674 79.6527 36.3425C79.7901 36.6176 80.0657 36.7558 80.4099 36.7558C80.7538 36.7558 81.0294 36.618 81.0981 36.4116C81.2358 36.2047 81.2358 35.5854 81.2358 34.6219L81.305 30.6983Z" fill="#59C0ED"/>
<path fill-rule="evenodd" clip-rule="evenodd" d="M95.1425 16.5193V39.8528H89.1533V16.5193H95.1425Z" fill="#59C0ED"/>
<path fill-rule="evenodd" clip-rule="evenodd" d="M168.461 16.5193V21.2H164.881V39.8528H158.823V21.2H155.243V16.5193H168.461Z" fill="#59C0ED"/>
<path fill-rule="evenodd" clip-rule="evenodd" d="M175.483 20.7181L175.277 23.1962C176.103 21.4065 177.342 20.4429 178.925 20.3052V27.0502C177.824 27.0502 177.067 27.188 176.585 27.4635C176.103 27.7387 175.759 28.152 175.69 28.6335C175.552 29.1155 175.483 30.3545 175.483 32.2129V39.7841H169.7V20.6494H175.483V20.7181Z" fill="#59C0ED"/>
<path fill-rule="evenodd" clip-rule="evenodd" d="M185.466 28.0829H180.027V26.7751C180.027 25.3296 180.165 24.1597 180.509 23.3339C180.853 22.5078 181.542 21.8193 182.574 21.2C183.607 20.5807 184.915 20.3052 186.567 20.3052C188.564 20.3052 190.01 20.6494 191.042 21.3378C192.075 22.0258 192.626 22.9206 192.832 23.8846C193.039 24.9168 193.107 26.9816 193.107 30.1481V39.7155H187.462V37.9944C187.118 38.6829 186.636 39.1644 186.085 39.5086C185.535 39.8528 184.846 39.9906 184.089 39.9906C183.056 39.9906 182.161 39.7155 181.266 39.1644C180.44 38.6138 179.958 37.3751 179.958 35.4477V33.8648C179.958 32.4193 180.165 31.4558 180.646 30.9738C181.129 30.4228 182.23 29.8726 184.02 29.1841C185.948 28.4271 186.98 27.9451 187.118 27.67C187.256 27.3944 187.325 26.9129 187.325 26.0867C187.325 25.1232 187.256 24.4348 187.118 24.1597C186.98 23.8846 186.705 23.6777 186.361 23.6777C185.948 23.6777 185.742 23.8155 185.604 24.091C185.466 24.3665 185.466 24.9859 185.466 26.0871V28.0829ZM187.325 30.6983C186.361 31.3867 185.879 31.9374 185.672 32.4193C185.535 32.9009 185.466 33.5206 185.466 34.4155C185.466 35.379 185.535 36.0674 185.672 36.3425C185.81 36.6176 186.086 36.7558 186.43 36.7558C186.774 36.7558 187.049 36.618 187.118 36.4116C187.256 36.2047 187.256 35.5854 187.256 34.6219V30.6983H187.325Z" fill="#59C0ED"/>
<path fill-rule="evenodd" clip-rule="evenodd" d="M208.46 16.5193V39.8528H202.608V38.4764C202.057 39.027 201.437 39.5086 200.818 39.7841C200.199 40.0592 199.579 40.197 198.891 40.197C197.995 40.197 197.169 39.9905 196.55 39.5086C195.861 39.027 195.448 38.4764 195.242 37.8566C195.035 37.2373 194.967 36.2047 194.967 34.8283V25.8802C194.967 24.4347 195.035 23.4025 195.242 22.7828C195.448 22.1635 195.861 21.6128 196.55 21.1309C197.238 20.6493 197.995 20.4429 198.959 20.4429C199.648 20.4429 200.336 20.5802 200.956 20.8558C201.575 21.1309 202.126 21.4751 202.608 22.0257V16.5884L208.46 16.5193ZM202.608 25.5365C202.608 24.848 202.539 24.3661 202.401 24.1596C202.264 23.9532 202.057 23.8154 201.713 23.8154C201.369 23.8154 201.162 23.9532 201.024 24.1596C200.887 24.3661 200.818 24.848 200.818 25.6051V34.9656C200.818 35.7227 200.887 36.2734 201.024 36.4802C201.162 36.7553 201.369 36.8244 201.713 36.8244C202.057 36.8244 202.332 36.6867 202.47 36.4111C202.608 36.136 202.677 35.4476 202.677 34.415L202.608 25.5365Z" fill="#59C0ED"/>
<path fill-rule="evenodd" clip-rule="evenodd" d="M223.743 30.561H216.17V34.6906C216.17 35.5854 216.239 36.1361 216.377 36.3425C216.514 36.6176 216.721 36.6867 217.066 36.6867C217.478 36.6867 217.822 36.549 217.961 36.2047C218.098 35.8605 218.167 35.2412 218.167 34.2777V31.7309H223.674V33.1077C223.674 34.2777 223.605 35.1726 223.468 35.8605C223.33 36.4803 222.986 37.1687 222.435 37.8567C221.884 38.5451 221.196 39.0957 220.37 39.5086C219.543 39.8528 218.442 40.0597 217.203 40.0597C215.964 40.0597 214.862 39.8528 213.967 39.5086C213.003 39.1644 212.315 38.6829 211.764 38.0635C211.213 37.4438 210.869 36.7558 210.662 35.9983C210.456 35.2412 210.387 34.1399 210.387 32.7635V27.1884C210.387 25.5365 210.594 24.2288 211.076 23.2653C211.558 22.3013 212.246 21.5442 213.279 21.0623C214.312 20.5807 215.482 20.3052 216.859 20.3052C218.511 20.3052 219.819 20.5807 220.92 21.2005C221.953 21.8198 222.71 22.6455 223.192 23.6781C223.605 24.7108 223.812 26.1562 223.812 28.0146L223.743 30.561ZM217.891 27.4635V26.0867C217.891 25.1232 217.822 24.4348 217.754 24.1597C217.616 23.8846 217.409 23.7464 217.134 23.7464C216.721 23.7464 216.446 23.8841 216.377 24.0906C216.308 24.3661 216.239 24.9859 216.239 26.0867V27.4635H217.891Z" fill="#59C0ED"/>
<path fill-rule="evenodd" clip-rule="evenodd" d="M5.78284 48.4565C5.78284 49.42 5.57636 50.1084 5.09472 50.5904C4.61265 51.0719 3.99321 51.347 3.09818 51.347C2.20315 51.347 1.58328 51.0719 1.10164 50.5904C0.619566 50.1084 0.413086 49.3513 0.413086 48.4565C0.413086 47.493 0.619566 46.8045 1.10164 46.323C1.58328 45.841 2.20315 45.5659 3.09818 45.5659C3.99321 45.5659 4.61265 45.841 5.09472 46.323C5.57636 46.8045 5.78284 47.493 5.78284 48.4565ZM1.72151 48.4565C1.72151 49.0758 1.85887 49.5578 2.06578 49.902C2.27226 50.2462 2.68522 50.3835 3.16686 50.3835C4.13058 50.3835 4.61265 49.7642 4.61265 48.4565C4.61265 47.2174 4.13058 46.5294 3.16686 46.5294C2.68522 46.5294 2.34094 46.6668 2.06578 47.011C1.85887 47.3552 1.72151 47.8372 1.72151 48.4565Z" fill="#7F7F7F"/>
<path fill-rule="evenodd" clip-rule="evenodd" d="M8.95003 51.3472V50.4524L8.88135 50.4528C8.39927 50.4528 7.98631 50.3837 7.64204 50.1777C7.29776 50.0399 7.02217 49.7644 6.81569 49.4206C6.60921 49.0764 6.54053 48.7322 6.54053 48.3193C6.54053 47.906 6.60964 47.5622 6.81569 47.218C7.02217 46.8738 7.29776 46.6674 7.64204 46.461C7.98631 46.2545 8.39927 46.1859 8.88135 46.1859L9.0874 46.185V45.4966L10.1893 45.497V46.1854L10.3954 46.185C10.8775 46.185 11.2908 46.2541 11.6347 46.4605C11.979 46.667 12.2546 46.8734 12.461 47.2172C12.6675 47.5614 12.7362 47.9056 12.7362 48.3185C12.7362 48.7318 12.6675 49.0756 12.461 49.4198C12.2546 49.764 11.979 50.0391 11.6347 50.1768C11.2908 50.3142 10.8779 50.4519 10.3954 50.4519L10.3267 50.4528V51.3477L8.95003 51.3472ZM8.95003 47.1489H8.81223C8.46796 47.1489 8.12368 47.2867 7.9172 47.4931C7.71072 47.6996 7.57293 47.9751 7.57293 48.3189C7.57293 48.6631 7.71072 49.0073 7.9172 49.2142C8.12368 49.4206 8.46796 49.558 8.88092 49.558H8.95003V47.1489ZM10.0511 49.558C10.5332 49.558 10.8083 49.4202 11.0839 49.2138C11.2908 49.0073 11.4282 48.7318 11.4282 48.3189C11.4282 47.9747 11.2908 47.6996 11.0839 47.4927C10.8775 47.2863 10.6023 47.1485 10.1889 47.1485L10.0511 47.1489V49.558Z" fill="#7F7F7F"/>
<path fill-rule="evenodd" clip-rule="evenodd" d="M13.4248 45.6348H14.5263V48.3189V49.076L14.4572 49.9022H14.4576L17.0736 45.6348H18.5194V51.2785H17.4866V48.5944C17.4866 48.2502 17.4866 47.6996 17.5557 47.0112L14.9393 51.3476L13.4248 51.3472V45.6348Z" fill="#7F7F7F"/>
<path fill-rule="evenodd" clip-rule="evenodd" d="M24.1642 50.315H24.9905V52.9305H23.8199V51.2785H19.6895V45.6348H20.8596V50.2464H22.9253V45.6348H24.0955V50.315H24.1642Z" fill="#7F7F7F"/>
<path fill-rule="evenodd" clip-rule="evenodd" d="M25.7478 45.6348H26.8493V48.3189V49.076L26.7806 49.9021L29.3966 45.6348H30.8424V51.2785H29.8096V48.5944C29.8096 48.2502 29.8096 47.6996 29.8787 47.0112H29.8783L27.1936 51.2785H25.7478V45.6348Z" fill="#7F7F7F"/>
<path fill-rule="evenodd" clip-rule="evenodd" d="M35.4549 51.2785L35.0415 49.9708H32.9763L32.5633 51.2785H31.3245L33.3206 45.6348H34.7664L36.7629 51.2785H35.4549ZM34.7664 48.9386C34.4221 47.6996 34.1469 47.0112 34.1469 46.8734C34.0778 46.7356 34.0778 46.5983 34.0778 46.5292C34.0091 46.8734 33.7335 47.6996 33.3206 48.9382L34.7664 48.9386Z" fill="#7F7F7F"/>
<path fill-rule="evenodd" clip-rule="evenodd" d="M41.7884 51.2785H40.6183V46.6669H39.2411L39.1725 47.1489C39.0347 48.4566 38.8973 49.3514 38.7591 49.9021C38.6217 50.4527 38.4839 50.7969 38.2083 51.0034C37.9327 51.2094 37.6576 51.3472 37.2446 51.3472C37.0381 51.3472 36.8312 51.3472 36.6938 51.2785V50.315C36.8312 50.3836 36.969 50.3836 37.1068 50.3836C37.2446 50.3836 37.3824 50.315 37.4511 50.1772C37.5202 50.0394 37.5889 49.833 37.658 49.4888C37.7267 49.1446 37.7954 48.5939 37.9332 47.8369C38.0705 47.0798 38.1396 46.3227 38.2083 45.6343L41.7884 45.6347V51.2785Z" fill="#7F7F7F"/>
<path fill-rule="evenodd" clip-rule="evenodd" d="M46.9518 49.4888C46.9518 50.6592 46.1946 51.2785 44.611 51.2785H43.0278V45.6348H44.198V47.7682H44.6801C45.4373 47.7682 45.9881 47.906 46.4015 48.1815C46.814 48.5253 46.9518 48.9386 46.9518 49.4888ZM44.198 50.315H44.611C45.0244 50.315 45.2995 50.2464 45.506 50.1086C45.7129 49.9708 45.7816 49.7644 45.7816 49.4893C45.7816 49.2142 45.7125 49.076 45.506 48.9386C45.2995 48.8009 45.0244 48.8009 44.5423 48.8009H44.2667V50.315H44.198Z" fill="#7F7F7F"/>
<path fill-rule="evenodd" clip-rule="evenodd" d="M52.5278 51.2785H51.2889V48.87L49.0859 48.8695V51.2785H47.9153V45.6348H49.0859V47.8373H51.2889V45.6348H52.4591V51.2785H52.5278Z" fill="#7F7F7F"/>
<path fill-rule="evenodd" clip-rule="evenodd" d="M57.6225 49.4889C57.6225 50.0395 57.4161 50.5215 57.0718 50.7966C56.6588 51.0721 56.1081 51.2099 55.3508 51.2099H53.8359V45.5657H55.0066V47.6996H55.4195C56.1081 47.6996 56.7275 47.8369 57.0718 48.1811C57.4161 48.5253 57.6225 48.9386 57.6225 49.4889ZM54.9379 50.315H55.2822C55.6951 50.315 55.9703 50.2464 56.1772 50.1086C56.3837 49.9708 56.4523 49.7644 56.4523 49.4893C56.4523 49.2142 56.3832 49.0073 56.1772 48.9386C55.9703 48.8009 55.6951 48.8009 55.2822 48.8009H55.0066V50.315H54.9379ZM59.4813 51.2786H58.3111V45.6348H59.4813V51.2786Z" fill="#7F7F7F"/>
<path fill-rule="evenodd" clip-rule="evenodd" d="M60.7205 45.6347H61.822V48.3188V49.0759L61.7529 49.9021H61.7533L64.3693 45.6347H65.8151V51.2785H64.7822V48.5943C64.7822 48.2501 64.7822 47.6995 64.8513 47.0111L62.2349 51.3475L60.7891 51.3471V45.6347H60.7205ZM65.1265 43.845C65.0574 44.327 64.92 44.6712 64.5757 44.8776C64.2315 45.084 63.8185 45.2218 63.1986 45.2218C62.5792 45.2218 62.1658 45.084 61.8215 44.8776C61.5464 44.6712 61.3399 44.327 61.3399 43.845H62.3727C62.3727 44.1201 62.4418 44.327 62.5792 44.3956C62.717 44.4647 62.9235 44.5334 63.1991 44.5334C63.4742 44.5334 63.6807 44.4643 63.7498 44.327C63.8872 44.1892 63.9563 44.0514 63.9563 43.7759H65.1265V43.845Z" fill="#7F7F7F"/>
<path fill-rule="evenodd" clip-rule="evenodd" d="M68.2932 50.2464H68.7062C69.0504 49.4893 69.3947 48.7318 69.6012 48.0438C69.8077 47.3554 69.9455 46.5292 70.0833 45.6348H73.3878V50.2464H74.145V52.8618H72.9748V51.2785H69.4638V52.9305H68.2932V50.2464ZM70.9783 46.5983C70.9092 47.2176 70.7718 47.8373 70.5649 48.4567C70.3584 49.076 70.152 49.6957 69.9455 50.2464H72.1485V46.5983H70.9783Z" fill="#7F7F7F"/>
<path fill-rule="evenodd" clip-rule="evenodd" d="M74.7646 45.6348H75.8662V48.3189V49.076L75.7975 49.9022L78.4135 45.6348H79.8592V51.2785H78.8264V48.5944C78.8264 48.2502 78.8264 47.6996 78.8955 47.0112L76.2795 51.3476L74.8333 51.3472V45.6348H74.7646Z" fill="#7F7F7F"/>
<path fill-rule="evenodd" clip-rule="evenodd" d="M85.5734 51.2785H84.3341V46.6669H82.9574V47.1489C82.8196 48.4566 82.6818 49.3514 82.544 49.9021C82.4062 50.4527 82.2688 50.7969 81.9932 51.0034C81.7176 51.2094 81.4425 51.3472 81.0295 51.3472C80.823 51.3472 80.6161 51.3472 80.4788 51.2785V50.315C80.6161 50.3836 80.7539 50.3836 80.8917 50.3836C81.0295 50.3836 81.1669 50.315 81.236 50.1772C81.3051 50.0394 81.3738 49.833 81.4425 49.4888C81.5116 49.1446 81.5803 48.5939 81.7181 47.8369C81.8554 47.0798 81.9245 46.3227 81.9932 45.6343L85.5734 45.6347V51.2785Z" fill="#7F7F7F"/>
<path fill-rule="evenodd" clip-rule="evenodd" d="M90.0482 51.2785H86.8127V45.6348H90.0482V46.5983H87.9829V47.8373H89.9104V48.8009H87.9829V50.2464H90.0482V51.2785Z" fill="#7F7F7F"/>
<path fill-rule="evenodd" clip-rule="evenodd" d="M94.9361 47.424C94.9361 48.0438 94.7296 48.4567 94.3853 48.8009C94.041 49.1451 93.4903 49.2828 92.8017 49.2828H92.3197V51.2785H91.1499V45.6348H92.9395C93.6281 45.6348 94.1102 45.7721 94.5227 46.0476C94.9356 46.3232 94.9361 46.8047 94.9361 47.424ZM92.251 48.2502H92.6639C93.0082 48.2502 93.2834 48.1811 93.4903 48.0438C93.6968 47.906 93.7655 47.6996 93.7655 47.424C93.7655 47.1489 93.6963 46.9425 93.559 46.8047C93.4212 46.667 93.1456 46.5983 92.8704 46.5983H92.3197V48.2502H92.251Z" fill="#7F7F7F"/>
</svg>
